{
  "accessors": [
    {
      "name": "Skeleton_Axe_Cylinder.002-Mesh_0_positions",
      "componentType": 5126,
      "count": 691,
      "min": [
        -0.4942930042743683,
        -0.25084200501441956,
        -0.14094699919223785
      ],
      "max": [
        0.4942930042743683,
        1.001204013824463,
        0.14092299342155457
      ],
      "type": "VEC3",
      "bufferView": 0,
      "byteOffset": 0
    },
    {
      "name": "Skeleton_Axe_Cylinder.002-Mesh_0_normals",
      "componentType": 5126,
      "count": 691,
      "min": [
        -1,
        -1,
        -1
      ],
      "max": [
        1,
        1,
        1
      ],
      "type": "VEC3",
      "bufferView": 1,
      "byteOffset": 0
    },
    {
      "name": "Skeleton_Axe_Cylinder.002-Mesh_0_texcoords",
      "componentType": 5126,
      "count": 691,
      "min": [
        0.39508798718452454,
        0.009116999804973602
      ],
      "max": [
        0.9481459856033325,
        0.23889599740505219
      ],
      "type": "VEC2",
      "bufferView": 2,
      "byteOffset": 0
    },
    {
      "name": "Skeleton_Axe_Cylinder.002-Mesh_0_indices",
      "componentType": 5123,
      "count": 1602,
      "min": [
        0
      ],
      "max": [
        690
      ],
      "type": "SCALAR",
      "bufferView": 3,
      "byteOffset": 0
    }
  ],
  "asset": {
    "generator": "obj2gltf",
    "version": "2.0"
  },
  "buffers": [
    {
      "name": "Skeleton_Axe",
      "byteLength": 42356,
      "uri": "data:application/octet-stream;base64,"
    }
  ],
  "bufferViews": [
    {
      "name": "bufferView_0",
      "buffer": 0,
      "byteLength": 8292,
      "byteOffset": 0,
      "byteStride": 12,
      "target": 34962
    },
    {
      "name": "bufferView_1",
      "buffer": 0,
      "byteLength": 8292,
      "byteOffset": 8292,
      "byteStride": 12,
      "target": 34962
    },
    {
      "name": "bufferView_2",
      "buffer": 0,
      "byteLength": 5528,
      "byteOffset": 16584,
      "byteStride": 8,
      "target": 34962
    },
    {
      "name": "bufferView_3",
      "buffer": 0,
      "byteLength": 3204,
      "byteOffset": 22112,
      "target": 34963
    },
    {
      "buffer": 0,
      "byteOffset": 25316,
      "byteLength": 17037
    }
  ],
  "images": [
    {
      "name": "skeleton_texture",
      "mimeType": "image/png",
      "bufferView": 4
    }
  ],
  "materials": [
    {
      "name": "skeleton",
      "pbrMetallicRoughness": {
        "baseColorTexture": {
          "index": 0
        },
        "baseColorFactor": [
          1,
          1,
          1,
          1
        ],
        "metallicFactor": 0,
        "roughnessFactor": 0.75
      },
      "emissiveFactor": [
        0,
        0,
        0
      ],
      "alphaMode": "OPAQUE",
      "doubleSided": false
    }
  ],
  "meshes": [
    {
      "name": "Skeleton_Axe_Cylinder.002-Mesh",
      "primitives": [
        {
          "attributes": {
            "POSITION": 0,
            "NORMAL": 1,
            "TEXCOORD_0": 2
          },
          "indices": 3,
          "material": 0,
          "mode": 4
        }
      ]
    }
  ],
  "nodes": [
    {
      "name": "Skeleton_Axe_Cylinder.002",
      "mesh": 0
    }
  ],
  "samplers": [
    {
      "wrapS": 10497,
      "wrapT": 10497
    }
  ],
  "scene": 0,
  "scenes": [
    {
      "nodes": [
        0
      ]
    }
  ],
  "textures": [
    {
      "name": "skeleton_texture",
      "sampler": 0,
      "source": 0
    }
  ]
}
