{
  "accessors": [
    {
      "name": "Skeleton_Dagger_Cube.16554-Mesh_0_positions",
      "componentType": 5126,
      "count": 968,
      "min": [
        -0.20387199521064758,
        -0.2791149914264679,
        -0.096949003636837
      ],
      "max": [
        0.13892099261283875,
        0.9973049759864807,
        0.096950002014637
      ],
      "type": "VEC3",
      "bufferView": 0,
      "byteOffset": 0
    },
    {
      "name": "Skeleton_Dagger_Cube.16554-Mesh_0_normals",
      "componentType": 5126,
      "count": 968,
      "min": [
        -1,
        -1,
        -0.9999128580093384
      ],
      "max": [
        1,
        1,
        0.9999128580093384
      ],
      "type": "VEC3",
      "bufferView": 1,
      "byteOffset": 0
    },
    {
      "name": "Skeleton_Dagger_Cube.16554-Mesh_0_texcoords",
      "componentType": 5126,
      "count": 968,
      "min": [
        0.15628500282764435,
        0.276621013879776
      ],
      "max": [
        0.457069993019104,
        0.6519560217857361
      ],
      "type": "VEC2",
      "bufferView": 2,
      "byteOffset": 0
    },
    {
      "name": "Skeleton_Dagger_Cube.16554-Mesh_0_indices",
      "componentType": 5123,
      "count": 2040,
      "min": [
        0
      ],
      "max": [
        967
      ],
      "type": "SCALAR",
      "bufferView": 3,
      "byteOffset": 0
    }
  ],
  "asset": {
    "generator": "obj2gltf",
    "version": "2.0"
  },
  "buffers": [
    {
      "name": "Skeleton_Dagger",
      "byteLength": 56336,
      "uri": "data:application/octet-stream;base64,"
    }
  ],
  "bufferViews": [
    {
      "name": "bufferView_0",
      "buffer": 0,
      "byteLength": 11616,
      "byteOffset": 0,
      "byteStride": 12,
      "target": 34962
    },
    {
      "name": "bufferView_1",
      "buffer": 0,
      "byteLength": 11616,
      "byteOffset": 11616,
      "byteStride": 12,
      "target": 34962
    },
    {
      "name": "bufferView_2",
      "buffer": 0,
      "byteLength": 7744,
      "byteOffset": 23232,
      "byteStride": 8,
      "target": 34962
    },
    {
      "name": "bufferView_3",
      "buffer": 0,
      "byteLength": 4080,
      "byteOffset": 30976,
      "target": 34963
    },
    {
      "buffer": 0,
      "byteOffset": 35056,
      "byteLength": 21277
    }
  ],
  "images": [
    {
      "name": "skeleton_texture_A",
      "mimeType": "image/png",
      "bufferView": 4
    }
  ],
  "materials": [
    {
      "name": "skeleton",
      "pbrMetallicRoughness": {
        "baseColorTexture": {
          "index": 0
        },
        "baseColorFactor": [
          1,
          1,
          1,
          1
        ],
        "metallicFactor": 0,
        "roughnessFactor": 0.75
      },
      "emissiveFactor": [
        0,
        0,
        0
      ],
      "alphaMode": "OPAQUE",
      "doubleSided": false
    }
  ],
  "meshes": [
    {
      "name": "Skeleton_Dagger_Cube.16554-Mesh",
      "primitives": [
        {
          "attributes": {
            "POSITION": 0,
            "NORMAL": 1,
            "TEXCOORD_0": 2
          },
          "indices": 3,
          "material": 0,
          "mode": 4
        }
      ]
    }
  ],
  "nodes": [
    {
      "name": "Skeleton_Dagger_Cube.16554",
      "mesh": 0
    }
  ],
  "samplers": [
    {
      "wrapS": 10497,
      "wrapT": 10497
    }
  ],
  "scene": 0,
  "scenes": [
    {
      "nodes": [
        0
      ]
    }
  ],
  "textures": [
    {
      "name": "skeleton_texture_A",
      "sampler": 0,
      "source": 0
    }
  ]
}
