{
  "accessors": [
    {
      "name": "Skeleton_Blade_Cube.007-Mesh_0_positions",
      "componentType": 5126,
      "count": 541,
      "min": [
        -0.2863140106201172,
        -0.32942700386047363,
        -0.11112499982118607
      ],
      "max": [
        0.2863380014896393,
        1.16776704788208,
        0.11112499982118607
      ],
      "type": "VEC3",
      "bufferView": 0,
      "byteOffset": 0
    },
    {
      "name": "Skeleton_Blade_Cube.007-Mesh_0_normals",
      "componentType": 5126,
      "count": 541,
      "min": [
        -0.9997878074645996,
        -0.9992890954017639,
        -1
      ],
      "max": [
        0.9999630451202393,
        1,
        1
      ],
      "type": "VEC3",
      "bufferView": 1,
      "byteOffset": 0
    },
    {
      "name": "Skeleton_Blade_Cube.007-Mesh_0_texcoords",
      "componentType": 5126,
      "count": 541,
      "min": [
        0.39689698815345764,
        0.08004699647426605
      ],
      "max": [
        0.8312309980392456,
        0.7045400142669678
      ],
      "type": "VEC2",
      "bufferView": 2,
      "byteOffset": 0
    },
    {
      "name": "Skeleton_Blade_Cube.007-Mesh_0_indices",
      "componentType": 5123,
      "count": 1371,
      "min": [
        0
      ],
      "max": [
        540
      ],
      "type": "SCALAR",
      "bufferView": 3,
      "byteOffset": 0
    }
  ],
  "asset": {
    "generator": "obj2gltf",
    "version": "2.0"
  },
  "buffers": [
    {
      "name": "Skeleton_Blade",
      "byteLength": 37096,
      "uri": "data:application/octet-stream;base64,"
    }
  ],
  "bufferViews": [
    {
      "name": "bufferView_0",
      "buffer": 0,
      "byteLength": 6492,
      "byteOffset": 0,
      "byteStride": 12,
      "target": 34962
    },
    {
      "name": "bufferView_1",
      "buffer": 0,
      "byteLength": 6492,
      "byteOffset": 6492,
      "byteStride": 12,
      "target": 34962
    },
    {
      "name": "bufferView_2",
      "buffer": 0,
      "byteLength": 4328,
      "byteOffset": 12984,
      "byteStride": 8,
      "target": 34962
    },
    {
      "name": "bufferView_3",
      "buffer": 0,
      "byteLength": 2744,
      "byteOffset": 17312,
      "target": 34963
    },
    {
      "buffer": 0,
      "byteOffset": 20056,
      "byteLength": 17037
    }
  ],
  "images": [
    {
      "name": "skeleton_texture",
      "mimeType": "image/png",
      "bufferView": 4
    }
  ],
  "materials": [
    {
      "name": "skeleton",
      "pbrMetallicRoughness": {
        "baseColorTexture": {
          "index": 0
        },
        "baseColorFactor": [
          1,
          1,
          1,
          1
        ],
        "metallicFactor": 0,
        "roughnessFactor": 0.75
      },
      "emissiveFactor": [
        0,
        0,
        0
      ],
      "alphaMode": "OPAQUE",
      "doubleSided": false
    }
  ],
  "meshes": [
    {
      "name": "Skeleton_Blade_Cube.007-Mesh",
      "primitives": [
        {
          "attributes": {
            "POSITION": 0,
            "NORMAL": 1,
            "TEXCOORD_0": 2
          },
          "indices": 3,
          "material": 0,
          "mode": 4
        }
      ]
    }
  ],
  "nodes": [
    {
      "name": "Skeleton_Blade_Cube.007",
      "mesh": 0
    }
  ],
  "samplers": [
    {
      "wrapS": 10497,
      "wrapT": 10497
    }
  ],
  "scene": 0,
  "scenes": [
    {
      "nodes": [
        0
      ]
    }
  ],
  "textures": [
    {
      "name": "skeleton_texture",
      "sampler": 0,
      "source": 0
    }
  ]
}
