{
  "accessors": [
    {
      "name": "chest-Mesh_0_positions",
      "componentType": 5126,
      "count": 430,
      "min": [
        -0.800000011920929,
        0,
        -0.6000000238418579
      ],
      "max": [
        0.800000011920929,
        0.6000000238418579,
        0.6458029747009277
      ],
      "type": "VEC3",
      "bufferView": 0,
      "byteOffset": 0
    },
    {
      "name": "chest-Mesh_0_normals",
      "componentType": 5126,
      "count": 430,
      "min": [
        -1,
        -1,
        -1
      ],
      "max": [
        1,
        1,
        1
      ],
      "type": "VEC3",
      "bufferView": 1,
      "byteOffset": 0
    },
    {
      "name": "chest-Mesh_0_texcoords",
      "componentType": 5126,
      "count": 430,
      "min": [
        0.13231199979782104,
        0.06562300026416779
      ],
      "max": [
        0.6020190119743347,
        0.24341100454330444
      ],
      "type": "VEC2",
      "bufferView": 2,
      "byteOffset": 0
    },
    {
      "name": "chest-Mesh_0_indices",
      "componentType": 5123,
      "count": 798,
      "min": [
        0
      ],
      "max": [
        429
      ],
      "type": "SCALAR",
      "bufferView": 3,
      "byteOffset": 0
    },
    {
      "name": "chest_gold_lid-Mesh_0_positions",
      "componentType": 5126,
      "count": 648,
      "min": [
        -0.8500000238418579,
        0.3349980115890503,
        -0.7000010013580322
      ],
      "max": [
        0.8500000238418579,
        1.2999999523162842,
        0.7458029985427856
      ],
      "type": "VEC3",
      "bufferView": 0,
      "byteOffset": 5160
    },
    {
      "name": "chest_gold_lid-Mesh_0_normals",
      "componentType": 5126,
      "count": 648,
      "min": [
        -1,
        -1,
        -1
      ],
      "max": [
        1,
        0.9962251782417297,
        1
      ],
      "type": "VEC3",
      "bufferView": 1,
      "byteOffset": 5160
    },
    {
      "name": "chest_gold_lid-Mesh_0_texcoords",
      "componentType": 5126,
      "count": 648,
      "min": [
        0.16369999945163727,
        0.02315099909901619
      ],
      "max": [
        0.5419459939002991,
        0.2200469970703125
      ],
      "type": "VEC2",
      "bufferView": 2,
      "byteOffset": 3440
    },
    {
      "name": "chest_gold_lid-Mesh_0_indices",
      "componentType": 5123,
      "count": 1386,
      "min": [
        0
      ],
      "max": [
        647
      ],
      "type": "SCALAR",
      "bufferView": 3,
      "byteOffset": 1596
    }
  ],
  "asset": {
    "generator": "obj2gltf",
    "version": "2.0"
  },
  "buffers": [
    {
      "name": "chest",
      "byteLength": 55912,
      "uri": "data:application/octet-stream;base64,"
    }
  ],
  "bufferViews": [
    {
      "name": "bufferView_0",
      "buffer": 0,
      "byteLength": 12936,
      "byteOffset": 0,
      "byteStride": 12,
      "target": 34962
    },
    {
      "name": "bufferView_1",
      "buffer": 0,
      "byteLength": 12936,
      "byteOffset": 12936,
      "byteStride": 12,
      "target": 34962
    },
    {
      "name": "bufferView_2",
      "buffer": 0,
      "byteLength": 8624,
      "byteOffset": 25872,
      "byteStride": 8,
      "target": 34962
    },
    {
      "name": "bufferView_3",
      "buffer": 0,
      "byteLength": 4368,
      "byteOffset": 34496,
      "target": 34963
    },
    {
      "buffer": 0,
      "byteOffset": 38864,
      "byteLength": 17047
    }
  ],
  "images": [
    {
      "name": "dungeon_texture",
      "mimeType": "image/png",
      "bufferView": 4
    }
  ],
  "materials": [
    {
      "name": "texture",
      "pbrMetallicRoughness": {
        "baseColorTexture": {
          "index": 0
        },
        "baseColorFactor": [
          1,
          1,
          1,
          1
        ],
        "metallicFactor": 0,
        "roughnessFactor": 0.6975
      },
      "emissiveFactor": [
        0,
        0,
        0
      ],
      "alphaMode": "OPAQUE",
      "doubleSided": false
    },
    {
      "name": "texture.001",
      "pbrMetallicRoughness": {
        "baseColorTexture": {
          "index": 0
        },
        "baseColorFactor": [
          1,
          1,
          1,
          1
        ],
        "metallicFactor": 0,
        "roughnessFactor": 0.6975
      },
      "emissiveFactor": [
        0,
        0,
        0
      ],
      "alphaMode": "OPAQUE",
      "doubleSided": false
    }
  ],
  "meshes": [
    {
      "name": "chest-Mesh",
      "primitives": [
        {
          "attributes": {
            "POSITION": 0,
            "NORMAL": 1,
            "TEXCOORD_0": 2
          },
          "indices": 3,
          "material": 0,
          "mode": 4
        }
      ]
    },
    {
      "name": "chest_gold_lid-Mesh",
      "primitives": [
        {
          "attributes": {
            "POSITION": 4,
            "NORMAL": 5,
            "TEXCOORD_0": 6
          },
          "indices": 7,
          "material": 1,
          "mode": 4
        }
      ]
    }
  ],
  "nodes": [
    {
      "name": "chest",
      "mesh": 0
    },
    {
      "name": "chest_gold_lid",
      "mesh": 1
    }
  ],
  "samplers": [
    {
      "wrapS": 10497,
      "wrapT": 10497
    }
  ],
  "scene": 0,
  "scenes": [
    {
      "nodes": [
        0,
        1
      ]
    }
  ],
  "textures": [
    {
      "name": "dungeon_texture",
      "sampler": 0,
      "source": 0
    }
  ]
}
