{
  "accessors": [
    {
      "name": "banner_shield_green-Mesh_0_positions",
      "componentType": 5126,
      "count": 1022,
      "min": [
        -1.1159989833831787,
        0.5313929915428162,
        0.3154259920120239
      ],
      "max": [
        1.1160030364990234,
        3.7274699211120605,
        0.6895279884338379
      ],
      "type": "VEC3",
      "bufferView": 0,
      "byteOffset": 0
    },
    {
      "name": "banner_shield_green-Mesh_0_normals",
      "componentType": 5126,
      "count": 1022,
      "min": [
        -0.9998067021369934,
        -0.9398235082626343,
        -1
      ],
      "max": [
        0.993756115436554,
        0.9999206066131592,
        1
      ],
      "type": "VEC3",
      "bufferView": 1,
      "byteOffset": 0
    },
    {
      "name": "banner_shield_green-Mesh_0_texcoords",
      "componentType": 5126,
      "count": 1022,
      "min": [
        0.045899998396635056,
        0.017754999920725822
      ],
      "max": [
        0.9297130107879639,
        0.742264986038208
      ],
      "type": "VEC2",
      "bufferView": 2,
      "byteOffset": 0
    },
    {
      "name": "banner_shield_green-Mesh_0_indices",
      "componentType": 5123,
      "count": 1917,
      "min": [
        0
      ],
      "max": [
        1021
      ],
      "type": "SCALAR",
      "bufferView": 3,
      "byteOffset": 0
    }
  ],
  "asset": {
    "generator": "obj2gltf",
    "version": "2.0"
  },
  "buffers": [
    {
      "name": "banner_shield_green",
      "byteLength": 53588,
      "uri": "data:application/octet-stream;base64,"
    }
  ],
  "bufferViews": [
    {
      "name": "bufferView_0",
      "buffer": 0,
      "byteLength": 12264,
      "byteOffset": 0,
      "byteStride": 12,
      "target": 34962
    },
    {
      "name": "bufferView_1",
      "buffer": 0,
      "byteLength": 12264,
      "byteOffset": 12264,
      "byteStride": 12,
      "target": 34962
    },
    {
      "name": "bufferView_2",
      "buffer": 0,
      "byteLength": 8176,
      "byteOffset": 24528,
      "byteStride": 8,
      "target": 34962
    },
    {
      "name": "bufferView_3",
      "buffer": 0,
      "byteLength": 3836,
      "byteOffset": 32704,
      "target": 34963
    },
    {
      "buffer": 0,
      "byteOffset": 36540,
      "byteLength": 17047
    }
  ],
  "images": [
    {
      "name": "dungeon_texture",
      "mimeType": "image/png",
      "bufferView": 4
    }
  ],
  "materials": [
    {
      "name": "texture",
      "pbrMetallicRoughness": {
        "baseColorTexture": {
          "index": 0
        },
        "baseColorFactor": [
          1,
          1,
          1,
          1
        ],
        "metallicFactor": 0,
        "roughnessFactor": 0.697499987
      },
      "emissiveFactor": [
        0,
        0,
        0
      ],
      "alphaMode": "OPAQUE",
      "doubleSided": false
    }
  ],
  "meshes": [
    {
      "name": "banner_shield_green-Mesh",
      "primitives": [
        {
          "attributes": {
            "POSITION": 0,
            "NORMAL": 1,
            "TEXCOORD_0": 2
          },
          "indices": 3,
          "material": 0,
          "mode": 4
        }
      ]
    }
  ],
  "nodes": [
    {
      "name": "banner_shield_green",
      "mesh": 0
    }
  ],
  "samplers": [
    {
      "wrapS": 10497,
      "wrapT": 10497
    }
  ],
  "scene": 0,
  "scenes": [
    {
      "nodes": [
        0
      ]
    }
  ],
  "textures": [
    {
      "name": "dungeon_texture",
      "sampler": 0,
      "source": 0
    }
  ]
}
