{
  "accessors": [
    {
      "name": "banner_patternB_brown-Mesh_0_positions",
      "componentType": 5126,
      "count": 197,
      "min": [
        -0.7499930262565613,
        0.5313929915428162,
        0.3776380121707916
      ],
      "max": [
        0.7500079870223999,
        3.7274699211120605,
        0.6895279884338379
      ],
      "type": "VEC3",
      "bufferView": 0,
      "byteOffset": 0
    },
    {
      "name": "banner_patternB_brown-Mesh_0_normals",
      "componentType": 5126,
      "count": 197,
      "min": [
        -0.9998067021369934,
        -0.8864728808403015,
        -0.49609097838401794
      ],
      "max": [
        0.993756115436554,
        0.8993872404098511,
        1
      ],
      "type": "VEC3",
      "bufferView": 1,
      "byteOffset": 0
    },
    {
      "name": "banner_patternB_brown-Mesh_0_texcoords",
      "componentType": 5126,
      "count": 197,
      "min": [
        0.03392000123858452,
        0.014816000126302242
      ],
      "max": [
        0.8502560257911682,
        0.42225199937820435
      ],
      "type": "VEC2",
      "bufferView": 2,
      "byteOffset": 0
    },
    {
      "name": "banner_patternB_brown-Mesh_0_indices",
      "componentType": 5123,
      "count": 291,
      "min": [
        0
      ],
      "max": [
        196
      ],
      "type": "SCALAR",
      "bufferView": 3,
      "byteOffset": 0
    }
  ],
  "asset": {
    "generator": "obj2gltf",
    "version": "2.0"
  },
  "buffers": [
    {
      "name": "banner_patternB_brown",
      "byteLength": 23936,
      "uri": "data:application/octet-stream;base64,"
    }
  ],
  "bufferViews": [
    {
      "name": "bufferView_0",
      "buffer": 0,
      "byteLength": 2364,
      "byteOffset": 0,
      "byteStride": 12,
      "target": 34962
    },
    {
      "name": "bufferView_1",
      "buffer": 0,
      "byteLength": 2364,
      "byteOffset": 2364,
      "byteStride": 12,
      "target": 34962
    },
    {
      "name": "bufferView_2",
      "buffer": 0,
      "byteLength": 1576,
      "byteOffset": 4728,
      "byteStride": 8,
      "target": 34962
    },
    {
      "name": "bufferView_3",
      "buffer": 0,
      "byteLength": 584,
      "byteOffset": 6304,
      "target": 34963
    },
    {
      "buffer": 0,
      "byteOffset": 6888,
      "byteLength": 17047
    }
  ],
  "images": [
    {
      "name": "dungeon_texture",
      "mimeType": "image/png",
      "bufferView": 4
    }
  ],
  "materials": [
    {
      "name": "texture",
      "pbrMetallicRoughness": {
        "baseColorTexture": {
          "index": 0
        },
        "baseColorFactor": [
          1,
          1,
          1,
          1
        ],
        "metallicFactor": 0,
        "roughnessFactor": 0.697499987
      },
      "emissiveFactor": [
        0,
        0,
        0
      ],
      "alphaMode": "OPAQUE",
      "doubleSided": false
    }
  ],
  "meshes": [
    {
      "name": "banner_patternB_brown-Mesh",
      "primitives": [
        {
          "attributes": {
            "POSITION": 0,
            "NORMAL": 1,
            "TEXCOORD_0": 2
          },
          "indices": 3,
          "material": 0,
          "mode": 4
        }
      ]
    }
  ],
  "nodes": [
    {
      "name": "banner_patternB_brown",
      "mesh": 0
    }
  ],
  "samplers": [
    {
      "wrapS": 10497,
      "wrapT": 10497
    }
  ],
  "scene": 0,
  "scenes": [
    {
      "nodes": [
        0
      ]
    }
  ],
  "textures": [
    {
      "name": "dungeon_texture",
      "sampler": 0,
      "source": 0
    }
  ]
}
