{
  "accessors": [
    {
      "name": "barrel_large_decorated-Mesh_0_positions",
      "componentType": 5126,
      "count": 1379,
      "min": [
        -0.9186949729919434,
        -0.0019910000264644623,
        -0.918694019317627
      ],
      "max": [
        1.0192619562149048,
        2.55446195602417,
        0.9367499947547913
      ],
      "type": "VEC3",
      "bufferView": 0,
      "byteOffset": 0
    },
    {
      "name": "barrel_large_decorated-Mesh_0_normals",
      "componentType": 5126,
      "count": 1379,
      "min": [
        -0.99989914894104,
        -1,
        -0.99989914894104
      ],
      "max": [
        0.99989914894104,
        1,
        0.99989914894104
      ],
      "type": "VEC3",
      "bufferView": 1,
      "byteOffset": 0
    },
    {
      "name": "barrel_large_decorated-Mesh_0_texcoords",
      "componentType": 5126,
      "count": 1379,
      "min": [
        0.03656499832868576,
        0.007114000152796507
      ],
      "max": [
        0.9494580030441284,
        0.9924529790878296
      ],
      "type": "VEC2",
      "bufferView": 2,
      "byteOffset": 0
    },
    {
      "name": "barrel_large_decorated-Mesh_0_indices",
      "componentType": 5123,
      "count": 3141,
      "min": [
        0
      ],
      "max": [
        1378
      ],
      "type": "SCALAR",
      "bufferView": 3,
      "byteOffset": 0
    }
  ],
  "asset": {
    "generator": "obj2gltf",
    "version": "2.0"
  },
  "buffers": [
    {
      "name": "barrel_large_decorated",
      "byteLength": 67460,
      "uri": "data:application/octet-stream;base64,"
    }
  ],
  "bufferViews": [
    {
      "name": "bufferView_0",
      "buffer": 0,
      "byteLength": 16548,
      "byteOffset": 0,
      "byteStride": 12,
      "target": 34962
    },
    {
      "name": "bufferView_1",
      "buffer": 0,
      "byteLength": 16548,
      "byteOffset": 16548,
      "byteStride": 12,
      "target": 34962
    },
    {
      "name": "bufferView_2",
      "buffer": 0,
      "byteLength": 11032,
      "byteOffset": 33096,
      "byteStride": 8,
      "target": 34962
    },
    {
      "name": "bufferView_3",
      "buffer": 0,
      "byteLength": 6284,
      "byteOffset": 44128,
      "target": 34963
    },
    {
      "buffer": 0,
      "byteOffset": 50412,
      "byteLength": 17047
    }
  ],
  "images": [
    {
      "name": "dungeon_texture",
      "mimeType": "image/png",
      "bufferView": 4
    }
  ],
  "materials": [
    {
      "name": "texture",
      "pbrMetallicRoughness": {
        "baseColorTexture": {
          "index": 0
        },
        "baseColorFactor": [
          1,
          1,
          1,
          1
        ],
        "metallicFactor": 0,
        "roughnessFactor": 0.697499987
      },
      "emissiveFactor": [
        0,
        0,
        0
      ],
      "alphaMode": "OPAQUE",
      "doubleSided": false
    }
  ],
  "meshes": [
    {
      "name": "barrel_large_decorated-Mesh",
      "primitives": [
        {
          "attributes": {
            "POSITION": 0,
            "NORMAL": 1,
            "TEXCOORD_0": 2
          },
          "indices": 3,
          "material": 0,
          "mode": 4
        }
      ]
    }
  ],
  "nodes": [
    {
      "name": "barrel_large_decorated",
      "mesh": 0
    }
  ],
  "samplers": [
    {
      "wrapS": 10497,
      "wrapT": 10497
    }
  ],
  "scene": 0,
  "scenes": [
    {
      "nodes": [
        0
      ]
    }
  ],
  "textures": [
    {
      "name": "dungeon_texture",
      "sampler": 0,
      "source": 0
    }
  ]
}
