{
  "accessors": [
    {
      "name": "barrel_small-Mesh_0_positions",
      "componentType": 5126,
      "count": 400,
      "min": [
        -0.50068199634552,
        0,
        -0.5006830096244812
      ],
      "max": [
        0.50068199634552,
        1.0176639556884766,
        0.5006809830665588
      ],
      "type": "VEC3",
      "bufferView": 0,
      "byteOffset": 0
    },
    {
      "name": "barrel_small-Mesh_0_normals",
      "componentType": 5126,
      "count": 400,
      "min": [
        -0.923873782157898,
        -1,
        -0.9409123063087463
      ],
      "max": [
        0.9893282055854797,
        1,
        0.9409123063087463
      ],
      "type": "VEC3",
      "bufferView": 1,
      "byteOffset": 0
    },
    {
      "name": "barrel_small-Mesh_0_texcoords",
      "componentType": 5126,
      "count": 400,
      "min": [
        0.1463800072669983,
        0.007114000152796507
      ],
      "max": [
        0.5848429799079895,
        0.20078100264072418
      ],
      "type": "VEC2",
      "bufferView": 2,
      "byteOffset": 0
    },
    {
      "name": "barrel_small-Mesh_0_indices",
      "componentType": 5123,
      "count": 621,
      "min": [
        0
      ],
      "max": [
        399
      ],
      "type": "SCALAR",
      "bufferView": 3,
      "byteOffset": 0
    }
  ],
  "asset": {
    "generator": "obj2gltf",
    "version": "2.0"
  },
  "buffers": [
    {
      "name": "barrel_small",
      "byteLength": 31092,
      "uri": "data:application/octet-stream;base64,"
    }
  ],
  "bufferViews": [
    {
      "name": "bufferView_0",
      "buffer": 0,
      "byteLength": 4800,
      "byteOffset": 0,
      "byteStride": 12,
      "target": 34962
    },
    {
      "name": "bufferView_1",
      "buffer": 0,
      "byteLength": 4800,
      "byteOffset": 4800,
      "byteStride": 12,
      "target": 34962
    },
    {
      "name": "bufferView_2",
      "buffer": 0,
      "byteLength": 3200,
      "byteOffset": 9600,
      "byteStride": 8,
      "target": 34962
    },
    {
      "name": "bufferView_3",
      "buffer": 0,
      "byteLength": 1244,
      "byteOffset": 12800,
      "target": 34963
    },
    {
      "buffer": 0,
      "byteOffset": 14044,
      "byteLength": 17047
    }
  ],
  "images": [
    {
      "name": "dungeon_texture",
      "mimeType": "image/png",
      "bufferView": 4
    }
  ],
  "materials": [
    {
      "name": "texture",
      "pbrMetallicRoughness": {
        "baseColorTexture": {
          "index": 0
        },
        "baseColorFactor": [
          1,
          1,
          1,
          1
        ],
        "metallicFactor": 0,
        "roughnessFactor": 0.697499987
      },
      "emissiveFactor": [
        0,
        0,
        0
      ],
      "alphaMode": "OPAQUE",
      "doubleSided": false
    }
  ],
  "meshes": [
    {
      "name": "barrel_small-Mesh",
      "primitives": [
        {
          "attributes": {
            "POSITION": 0,
            "NORMAL": 1,
            "TEXCOORD_0": 2
          },
          "indices": 3,
          "material": 0,
          "mode": 4
        }
      ]
    }
  ],
  "nodes": [
    {
      "name": "barrel_small",
      "mesh": 0
    }
  ],
  "samplers": [
    {
      "wrapS": 10497,
      "wrapT": 10497
    }
  ],
  "scene": 0,
  "scenes": [
    {
      "nodes": [
        0
      ]
    }
  ],
  "textures": [
    {
      "name": "dungeon_texture",
      "sampler": 0,
      "source": 0
    }
  ]
}
