{
  "accessors": [
    {
      "name": "bottle_A_labeled_brown-Mesh_0_positions",
      "componentType": 5126,
      "count": 210,
      "min": [
        -0.18420499563217163,
        9.999999974752427e-7,
        -0.18420499563217163
      ],
      "max": [
        0.18420499563217163,
        0.8857150077819824,
        0.18420499563217163
      ],
      "type": "VEC3",
      "bufferView": 0,
      "byteOffset": 0
    },
    {
      "name": "bottle_A_labeled_brown-Mesh_0_normals",
      "componentType": 5126,
      "count": 210,
      "min": [
        -0.9713902473449707,
        -1,
        -0.9713902473449707
      ],
      "max": [
        0.9713902473449707,
        1,
        0.9713902473449707
      ],
      "type": "VEC3",
      "bufferView": 1,
      "byteOffset": 0
    },
    {
      "name": "bottle_A_labeled_brown-Mesh_0_texcoords",
      "componentType": 5126,
      "count": 210,
      "min": [
        0.03755699843168259,
        0.008175999857485294
      ],
      "max": [
        0.8448179960250854,
        0.4820519983768463
      ],
      "type": "VEC2",
      "bufferView": 2,
      "byteOffset": 0
    },
    {
      "name": "bottle_A_labeled_brown-Mesh_0_indices",
      "componentType": 5123,
      "count": 432,
      "min": [
        0
      ],
      "max": [
        209
      ],
      "type": "SCALAR",
      "bufferView": 3,
      "byteOffset": 0
    }
  ],
  "asset": {
    "generator": "obj2gltf",
    "version": "2.0"
  },
  "buffers": [
    {
      "name": "bottle_A_labeled_brown",
      "byteLength": 24632,
      "uri": "data:application/octet-stream;base64,"
    }
  ],
  "bufferViews": [
    {
      "name": "bufferView_0",
      "buffer": 0,
      "byteLength": 2520,
      "byteOffset": 0,
      "byteStride": 12,
      "target": 34962
    },
    {
      "name": "bufferView_1",
      "buffer": 0,
      "byteLength": 2520,
      "byteOffset": 2520,
      "byteStride": 12,
      "target": 34962
    },
    {
      "name": "bufferView_2",
      "buffer": 0,
      "byteLength": 1680,
      "byteOffset": 5040,
      "byteStride": 8,
      "target": 34962
    },
    {
      "name": "bufferView_3",
      "buffer": 0,
      "byteLength": 864,
      "byteOffset": 6720,
      "target": 34963
    },
    {
      "buffer": 0,
      "byteOffset": 7584,
      "byteLength": 17047
    }
  ],
  "images": [
    {
      "name": "dungeon_texture",
      "mimeType": "image/png",
      "bufferView": 4
    }
  ],
  "materials": [
    {
      "name": "texture",
      "pbrMetallicRoughness": {
        "baseColorTexture": {
          "index": 0
        },
        "baseColorFactor": [
          1,
          1,
          1,
          1
        ],
        "metallicFactor": 0,
        "roughnessFactor": 0.697499987
      },
      "emissiveFactor": [
        0,
        0,
        0
      ],
      "alphaMode": "OPAQUE",
      "doubleSided": false
    }
  ],
  "meshes": [
    {
      "name": "bottle_A_labeled_brown-Mesh",
      "primitives": [
        {
          "attributes": {
            "POSITION": 0,
            "NORMAL": 1,
            "TEXCOORD_0": 2
          },
          "indices": 3,
          "material": 0,
          "mode": 4
        }
      ]
    }
  ],
  "nodes": [
    {
      "name": "bottle_A_labeled_brown",
      "mesh": 0
    }
  ],
  "samplers": [
    {
      "wrapS": 10497,
      "wrapT": 10497
    }
  ],
  "scene": 0,
  "scenes": [
    {
      "nodes": [
        0
      ]
    }
  ],
  "textures": [
    {
      "name": "dungeon_texture",
      "sampler": 0,
      "source": 0
    }
  ]
}
