{
  "accessors": [
    {
      "name": "box_stacked-Mesh_0_positions",
      "componentType": 5126,
      "count": 3394,
      "min": [
        -1.7504010200500488,
        0,
        -1.7734800577163696
      ],
      "max": [
        1.7248740196228027,
        3.3089048862457275,
        1.8612669706344604
      ],
      "type": "VEC3",
      "bufferView": 0,
      "byteOffset": 0
    },
    {
      "name": "box_stacked-Mesh_0_normals",
      "componentType": 5126,
      "count": 3394,
      "min": [
        -0.9999733567237854,
        -1,
        -0.9999733567237854
      ],
      "max": [
        0.9999733567237854,
        1,
        0.9999733567237854
      ],
      "type": "VEC3",
      "bufferView": 1,
      "byteOffset": 0
    },
    {
      "name": "box_stacked-Mesh_0_texcoords",
      "componentType": 5126,
      "count": 3394,
      "min": [
        0.027566000819206238,
        0.00406700000166893
      ],
      "max": [
        0.9770190119743347,
        0.7480300068855286
      ],
      "type": "VEC2",
      "bufferView": 2,
      "byteOffset": 0
    },
    {
      "name": "box_stacked-Mesh_0_indices",
      "componentType": 5123,
      "count": 6519,
      "min": [
        0
      ],
      "max": [
        3393
      ],
      "type": "SCALAR",
      "bufferView": 3,
      "byteOffset": 0
    }
  ],
  "asset": {
    "generator": "obj2gltf",
    "version": "2.0"
  },
  "buffers": [
    {
      "name": "box_stacked",
      "byteLength": 138696,
      "uri": "data:application/octet-stream;base64,"
    }
  ],
  "bufferViews": [
    {
      "name": "bufferView_0",
      "buffer": 0,
      "byteLength": 40728,
      "byteOffset": 0,
      "byteStride": 12,
      "target": 34962
    },
    {
      "name": "bufferView_1",
      "buffer": 0,
      "byteLength": 40728,
      "byteOffset": 40728,
      "byteStride": 12,
      "target": 34962
    },
    {
      "name": "bufferView_2",
      "buffer": 0,
      "byteLength": 27152,
      "byteOffset": 81456,
      "byteStride": 8,
      "target": 34962
    },
    {
      "name": "bufferView_3",
      "buffer": 0,
      "byteLength": 13040,
      "byteOffset": 108608,
      "target": 34963
    },
    {
      "buffer": 0,
      "byteOffset": 121648,
      "byteLength": 17047
    }
  ],
  "images": [
    {
      "name": "dungeon_texture",
      "mimeType": "image/png",
      "bufferView": 4
    }
  ],
  "materials": [
    {
      "name": "texture",
      "pbrMetallicRoughness": {
        "baseColorTexture": {
          "index": 0
        },
        "baseColorFactor": [
          1,
          1,
          1,
          1
        ],
        "metallicFactor": 0,
        "roughnessFactor": 0.697499987
      },
      "emissiveFactor": [
        0,
        0,
        0
      ],
      "alphaMode": "OPAQUE",
      "doubleSided": false
    }
  ],
  "meshes": [
    {
      "name": "box_stacked-Mesh",
      "primitives": [
        {
          "attributes": {
            "POSITION": 0,
            "NORMAL": 1,
            "TEXCOORD_0": 2
          },
          "indices": 3,
          "material": 0,
          "mode": 4
        }
      ]
    }
  ],
  "nodes": [
    {
      "name": "box_stacked",
      "mesh": 0
    }
  ],
  "samplers": [
    {
      "wrapS": 10497,
      "wrapT": 10497
    }
  ],
  "scene": 0,
  "scenes": [
    {
      "nodes": [
        0
      ]
    }
  ],
  "textures": [
    {
      "name": "dungeon_texture",
      "sampler": 0,
      "source": 0
    }
  ]
}
