{
  "accessors": [
    {
      "name": "candle_triple-Mesh_0_positions",
      "componentType": 5126,
      "count": 273,
      "min": [
        -0.16718600690364838,
        0,
        -0.1595270037651062
      ],
      "max": [
        0.33399298787117004,
        0.8729820251464844,
        0.2303979992866516
      ],
      "type": "VEC3",
      "bufferView": 0,
      "byteOffset": 0
    },
    {
      "name": "candle_triple-Mesh_0_normals",
      "componentType": 5126,
      "count": 273,
      "min": [
        -0.9921310544013977,
        -1,
        -0.9999843239784241
      ],
      "max": [
        0.9945878982543945,
        1,
        1
      ],
      "type": "VEC3",
      "bufferView": 1,
      "byteOffset": 0
    },
    {
      "name": "candle_triple-Mesh_0_texcoords",
      "componentType": 5126,
      "count": 273,
      "min": [
        0.03656499832868576,
        0.168830007314682
      ],
      "max": [
        0.9494580030441284,
        0.9924529790878296
      ],
      "type": "VEC2",
      "bufferView": 2,
      "byteOffset": 0
    },
    {
      "name": "candle_triple-Mesh_0_indices",
      "componentType": 5123,
      "count": 594,
      "min": [
        0
      ],
      "max": [
        272
      ],
      "type": "SCALAR",
      "bufferView": 3,
      "byteOffset": 0
    }
  ],
  "asset": {
    "generator": "obj2gltf",
    "version": "2.0"
  },
  "buffers": [
    {
      "name": "candle_triple",
      "byteLength": 26972,
      "uri": "data:application/octet-stream;base64,"
    }
  ],
  "bufferViews": [
    {
      "name": "bufferView_0",
      "buffer": 0,
      "byteLength": 3276,
      "byteOffset": 0,
      "byteStride": 12,
      "target": 34962
    },
    {
      "name": "bufferView_1",
      "buffer": 0,
      "byteLength": 3276,
      "byteOffset": 3276,
      "byteStride": 12,
      "target": 34962
    },
    {
      "name": "bufferView_2",
      "buffer": 0,
      "byteLength": 2184,
      "byteOffset": 6552,
      "byteStride": 8,
      "target": 34962
    },
    {
      "name": "bufferView_3",
      "buffer": 0,
      "byteLength": 1188,
      "byteOffset": 8736,
      "target": 34963
    },
    {
      "buffer": 0,
      "byteOffset": 9924,
      "byteLength": 17047
    }
  ],
  "images": [
    {
      "name": "dungeon_texture",
      "mimeType": "image/png",
      "bufferView": 4
    }
  ],
  "materials": [
    {
      "name": "texture",
      "pbrMetallicRoughness": {
        "baseColorTexture": {
          "index": 0
        },
        "baseColorFactor": [
          1,
          1,
          1,
          1
        ],
        "metallicFactor": 0,
        "roughnessFactor": 0.697499987
      },
      "emissiveFactor": [
        0,
        0,
        0
      ],
      "alphaMode": "OPAQUE",
      "doubleSided": false
    }
  ],
  "meshes": [
    {
      "name": "candle_triple-Mesh",
      "primitives": [
        {
          "attributes": {
            "POSITION": 0,
            "NORMAL": 1,
            "TEXCOORD_0": 2
          },
          "indices": 3,
          "material": 0,
          "mode": 4
        }
      ]
    }
  ],
  "nodes": [
    {
      "name": "candle_triple",
      "mesh": 0
    }
  ],
  "samplers": [
    {
      "wrapS": 10497,
      "wrapT": 10497
    }
  ],
  "scene": 0,
  "scenes": [
    {
      "nodes": [
        0
      ]
    }
  ],
  "textures": [
    {
      "name": "dungeon_texture",
      "sampler": 0,
      "source": 0
    }
  ]
}
