{
  "accessors": [
    {
      "name": "chest_gold-Mesh_0_positions",
      "componentType": 5126,
      "count": 1508,
      "min": [
        -0.800000011920929,
        0,
        -0.6000000238418579
      ],
      "max": [
        0.800000011920929,
        1.040671944618225,
        0.6458029747009277
      ],
      "type": "VEC3",
      "bufferView": 0,
      "byteOffset": 0
    },
    {
      "name": "chest_gold-Mesh_0_normals",
      "componentType": 5126,
      "count": 1508,
      "min": [
        -1,
        -1,
        -1
      ],
      "max": [
        1,
        1,
        1
      ],
      "type": "VEC3",
      "bufferView": 1,
      "byteOffset": 0
    },
    {
      "name": "chest_gold-Mesh_0_texcoords",
      "componentType": 5126,
      "count": 1508,
      "min": [
        0.13231199979782104,
        0.06562300026416779
      ],
      "max": [
        0.9809539914131165,
        0.700967013835907
      ],
      "type": "VEC2",
      "bufferView": 2,
      "byteOffset": 0
    },
    {
      "name": "chest_gold-Mesh_0_indices",
      "componentType": 5123,
      "count": 3318,
      "min": [
        0
      ],
      "max": [
        1507
      ],
      "type": "SCALAR",
      "bufferView": 3,
      "byteOffset": 0
    }
  ],
  "asset": {
    "generator": "obj2gltf",
    "version": "2.0"
  },
  "buffers": [
    {
      "name": "chest_gold",
      "byteLength": 71940,
      "uri": "data:application/octet-stream;base64,"
    }
  ],
  "bufferViews": [
    {
      "name": "bufferView_0",
      "buffer": 0,
      "byteLength": 18096,
      "byteOffset": 0,
      "byteStride": 12,
      "target": 34962
    },
    {
      "name": "bufferView_1",
      "buffer": 0,
      "byteLength": 18096,
      "byteOffset": 18096,
      "byteStride": 12,
      "target": 34962
    },
    {
      "name": "bufferView_2",
      "buffer": 0,
      "byteLength": 12064,
      "byteOffset": 36192,
      "byteStride": 8,
      "target": 34962
    },
    {
      "name": "bufferView_3",
      "buffer": 0,
      "byteLength": 6636,
      "byteOffset": 48256,
      "target": 34963
    },
    {
      "buffer": 0,
      "byteOffset": 54892,
      "byteLength": 17047
    }
  ],
  "images": [
    {
      "name": "dungeon_texture",
      "mimeType": "image/png",
      "bufferView": 4
    }
  ],
  "materials": [
    {
      "name": "texture",
      "pbrMetallicRoughness": {
        "baseColorTexture": {
          "index": 0
        },
        "baseColorFactor": [
          1,
          1,
          1,
          1
        ],
        "metallicFactor": 0,
        "roughnessFactor": 0.697499987
      },
      "emissiveFactor": [
        0,
        0,
        0
      ],
      "alphaMode": "OPAQUE",
      "doubleSided": false
    }
  ],
  "meshes": [
    {
      "name": "chest_gold-Mesh",
      "primitives": [
        {
          "attributes": {
            "POSITION": 0,
            "NORMAL": 1,
            "TEXCOORD_0": 2
          },
          "indices": 3,
          "material": 0,
          "mode": 4
        }
      ]
    }
  ],
  "nodes": [
    {
      "name": "chest_gold",
      "mesh": 0
    }
  ],
  "samplers": [
    {
      "wrapS": 10497,
      "wrapT": 10497
    }
  ],
  "scene": 0,
  "scenes": [
    {
      "nodes": [
        0
      ]
    }
  ],
  "textures": [
    {
      "name": "dungeon_texture",
      "sampler": 0,
      "source": 0
    }
  ]
}
