{
  "accessors": [
    {
      "name": "coin_stack_large-Mesh_0_positions",
      "componentType": 5126,
      "count": 2208,
      "min": [
        -0.7193040251731873,
        0,
        -0.8155789971351624
      ],
      "max": [
        0.717195987701416,
        1.1568889617919922,
        0.8431029915809631
      ],
      "type": "VEC3",
      "bufferView": 0,
      "byteOffset": 0
    },
    {
      "name": "coin_stack_large-Mesh_0_normals",
      "componentType": 5126,
      "count": 2208,
      "min": [
        -0.9996415376663208,
        -0.6913100481033325,
        -0.9998528361320496
      ],
      "max": [
        0.9995706677436829,
        1,
        0.9998528361320496
      ],
      "type": "VEC3",
      "bufferView": 1,
      "byteOffset": 0
    },
    {
      "name": "coin_stack_large-Mesh_0_texcoords",
      "componentType": 5126,
      "count": 2208,
      "min": [
        0.8940479755401611,
        0.5259299874305725
      ],
      "max": [
        0.9809539914131165,
        0.700967013835907
      ],
      "type": "VEC2",
      "bufferView": 2,
      "byteOffset": 0
    },
    {
      "name": "coin_stack_large-Mesh_0_indices",
      "componentType": 5123,
      "count": 5328,
      "min": [
        0
      ],
      "max": [
        2207
      ],
      "type": "SCALAR",
      "bufferView": 3,
      "byteOffset": 0
    }
  ],
  "asset": {
    "generator": "obj2gltf",
    "version": "2.0"
  },
  "buffers": [
    {
      "name": "coin_stack_large",
      "byteLength": 98360,
      "uri": "data:application/octet-stream;base64,"
    }
  ],
  "bufferViews": [
    {
      "name": "bufferView_0",
      "buffer": 0,
      "byteLength": 26496,
      "byteOffset": 0,
      "byteStride": 12,
      "target": 34962
    },
    {
      "name": "bufferView_1",
      "buffer": 0,
      "byteLength": 26496,
      "byteOffset": 26496,
      "byteStride": 12,
      "target": 34962
    },
    {
      "name": "bufferView_2",
      "buffer": 0,
      "byteLength": 17664,
      "byteOffset": 52992,
      "byteStride": 8,
      "target": 34962
    },
    {
      "name": "bufferView_3",
      "buffer": 0,
      "byteLength": 10656,
      "byteOffset": 70656,
      "target": 34963
    },
    {
      "buffer": 0,
      "byteOffset": 81312,
      "byteLength": 17047
    }
  ],
  "images": [
    {
      "name": "dungeon_texture",
      "mimeType": "image/png",
      "bufferView": 4
    }
  ],
  "materials": [
    {
      "name": "texture",
      "pbrMetallicRoughness": {
        "baseColorTexture": {
          "index": 0
        },
        "baseColorFactor": [
          1,
          1,
          1,
          1
        ],
        "metallicFactor": 0,
        "roughnessFactor": 0.697499987
      },
      "emissiveFactor": [
        0,
        0,
        0
      ],
      "alphaMode": "OPAQUE",
      "doubleSided": false
    }
  ],
  "meshes": [
    {
      "name": "coin_stack_large-Mesh",
      "primitives": [
        {
          "attributes": {
            "POSITION": 0,
            "NORMAL": 1,
            "TEXCOORD_0": 2
          },
          "indices": 3,
          "material": 0,
          "mode": 4
        }
      ]
    }
  ],
  "nodes": [
    {
      "name": "coin_stack_large",
      "mesh": 0
    }
  ],
  "samplers": [
    {
      "wrapS": 10497,
      "wrapT": 10497
    }
  ],
  "scene": 0,
  "scenes": [
    {
      "nodes": [
        0
      ]
    }
  ],
  "textures": [
    {
      "name": "dungeon_texture",
      "sampler": 0,
      "source": 0
    }
  ]
}
