{
  "accessors": [
    {
      "name": "coin_stack_medium-Mesh_0_positions",
      "componentType": 5126,
      "count": 1235,
      "min": [
        -0.4463379979133606,
        -9.999999974752427e-7,
        -0.507390022277832
      ],
      "max": [
        0.5470349788665771,
        0.6406720280647278,
        0.526718020439148
      ],
      "type": "VEC3",
      "bufferView": 0,
      "byteOffset": 0
    },
    {
      "name": "coin_stack_medium-Mesh_0_normals",
      "componentType": 5126,
      "count": 1235,
      "min": [
        -0.9996415376663208,
        -0.6913100481033325,
        -0.9996771216392517
      ],
      "max": [
        0.999424159526825,
        1,
        0.9996771216392517
      ],
      "type": "VEC3",
      "bufferView": 1,
      "byteOffset": 0
    },
    {
      "name": "coin_stack_medium-Mesh_0_texcoords",
      "componentType": 5126,
      "count": 1235,
      "min": [
        0.8940479755401611,
        0.5259299874305725
      ],
      "max": [
        0.9809539914131165,
        0.700967013835907
      ],
      "type": "VEC2",
      "bufferView": 2,
      "byteOffset": 0
    },
    {
      "name": "coin_stack_medium-Mesh_0_indices",
      "componentType": 5123,
      "count": 2904,
      "min": [
        0
      ],
      "max": [
        1234
      ],
      "type": "SCALAR",
      "bufferView": 3,
      "byteOffset": 0
    }
  ],
  "asset": {
    "generator": "obj2gltf",
    "version": "2.0"
  },
  "buffers": [
    {
      "name": "coin_stack_medium",
      "byteLength": 62376,
      "uri": "data:application/octet-stream;base64,"
    }
  ],
  "bufferViews": [
    {
      "name": "bufferView_0",
      "buffer": 0,
      "byteLength": 14820,
      "byteOffset": 0,
      "byteStride": 12,
      "target": 34962
    },
    {
      "name": "bufferView_1",
      "buffer": 0,
      "byteLength": 14820,
      "byteOffset": 14820,
      "byteStride": 12,
      "target": 34962
    },
    {
      "name": "bufferView_2",
      "buffer": 0,
      "byteLength": 9880,
      "byteOffset": 29640,
      "byteStride": 8,
      "target": 34962
    },
    {
      "name": "bufferView_3",
      "buffer": 0,
      "byteLength": 5808,
      "byteOffset": 39520,
      "target": 34963
    },
    {
      "buffer": 0,
      "byteOffset": 45328,
      "byteLength": 17047
    }
  ],
  "images": [
    {
      "name": "dungeon_texture",
      "mimeType": "image/png",
      "bufferView": 4
    }
  ],
  "materials": [
    {
      "name": "texture",
      "pbrMetallicRoughness": {
        "baseColorTexture": {
          "index": 0
        },
        "baseColorFactor": [
          1,
          1,
          1,
          1
        ],
        "metallicFactor": 0,
        "roughnessFactor": 0.697499987
      },
      "emissiveFactor": [
        0,
        0,
        0
      ],
      "alphaMode": "OPAQUE",
      "doubleSided": false
    }
  ],
  "meshes": [
    {
      "name": "coin_stack_medium-Mesh",
      "primitives": [
        {
          "attributes": {
            "POSITION": 0,
            "NORMAL": 1,
            "TEXCOORD_0": 2
          },
          "indices": 3,
          "material": 0,
          "mode": 4
        }
      ]
    }
  ],
  "nodes": [
    {
      "name": "coin_stack_medium",
      "mesh": 0
    }
  ],
  "samplers": [
    {
      "wrapS": 10497,
      "wrapT": 10497
    }
  ],
  "scene": 0,
  "scenes": [
    {
      "nodes": [
        0
      ]
    }
  ],
  "textures": [
    {
      "name": "dungeon_texture",
      "sampler": 0,
      "source": 0
    }
  ]
}
