{
  "accessors": [
    {
      "name": "coin_stack_small-Mesh_0_positions",
      "componentType": 5126,
      "count": 560,
      "min": [
        -0.445248007774353,
        -9.999999974752427e-7,
        -0.4608289897441864
      ],
      "max": [
        0.5138639807701111,
        0.4782330095767975,
        0.43551599979400635
      ],
      "type": "VEC3",
      "bufferView": 0,
      "byteOffset": 0
    },
    {
      "name": "coin_stack_small-Mesh_0_normals",
      "componentType": 5126,
      "count": 560,
      "min": [
        -0.9973540902137756,
        -0.6912997961044312,
        -0.9973613023757935
      ],
      "max": [
        0.9973390698432922,
        1,
        0.9973317384719849
      ],
      "type": "VEC3",
      "bufferView": 1,
      "byteOffset": 0
    },
    {
      "name": "coin_stack_small-Mesh_0_texcoords",
      "componentType": 5126,
      "count": 560,
      "min": [
        0.8940479755401611,
        0.5259299874305725
      ],
      "max": [
        0.9809539914131165,
        0.700967013835907
      ],
      "type": "VEC2",
      "bufferView": 2,
      "byteOffset": 0
    },
    {
      "name": "coin_stack_small-Mesh_0_indices",
      "componentType": 5123,
      "count": 1248,
      "min": [
        0
      ],
      "max": [
        559
      ],
      "type": "SCALAR",
      "bufferView": 3,
      "byteOffset": 0
    }
  ],
  "asset": {
    "generator": "obj2gltf",
    "version": "2.0"
  },
  "buffers": [
    {
      "name": "coin_stack_small",
      "byteLength": 37464,
      "uri": "data:application/octet-stream;base64,"
    }
  ],
  "bufferViews": [
    {
      "name": "bufferView_0",
      "buffer": 0,
      "byteLength": 6720,
      "byteOffset": 0,
      "byteStride": 12,
      "target": 34962
    },
    {
      "name": "bufferView_1",
      "buffer": 0,
      "byteLength": 6720,
      "byteOffset": 6720,
      "byteStride": 12,
      "target": 34962
    },
    {
      "name": "bufferView_2",
      "buffer": 0,
      "byteLength": 4480,
      "byteOffset": 13440,
      "byteStride": 8,
      "target": 34962
    },
    {
      "name": "bufferView_3",
      "buffer": 0,
      "byteLength": 2496,
      "byteOffset": 17920,
      "target": 34963
    },
    {
      "buffer": 0,
      "byteOffset": 20416,
      "byteLength": 17047
    }
  ],
  "images": [
    {
      "name": "dungeon_texture",
      "mimeType": "image/png",
      "bufferView": 4
    }
  ],
  "materials": [
    {
      "name": "texture",
      "pbrMetallicRoughness": {
        "baseColorTexture": {
          "index": 0
        },
        "baseColorFactor": [
          1,
          1,
          1,
          1
        ],
        "metallicFactor": 0,
        "roughnessFactor": 0.697499987
      },
      "emissiveFactor": [
        0,
        0,
        0
      ],
      "alphaMode": "OPAQUE",
      "doubleSided": false
    }
  ],
  "meshes": [
    {
      "name": "coin_stack_small-Mesh",
      "primitives": [
        {
          "attributes": {
            "POSITION": 0,
            "NORMAL": 1,
            "TEXCOORD_0": 2
          },
          "indices": 3,
          "material": 0,
          "mode": 4
        }
      ]
    }
  ],
  "nodes": [
    {
      "name": "coin_stack_small",
      "mesh": 0
    }
  ],
  "samplers": [
    {
      "wrapS": 10497,
      "wrapT": 10497
    }
  ],
  "scene": 0,
  "scenes": [
    {
      "nodes": [
        0
      ]
    }
  ],
  "textures": [
    {
      "name": "dungeon_texture",
      "sampler": 0,
      "source": 0
    }
  ]
}
