{
  "accessors": [
    {
      "name": "crates_stacked-Mesh_0_positions",
      "componentType": 5126,
      "count": 2246,
      "min": [
        -1.0900039672851562,
        -0.000003999999989900971,
        -1.1572480201721191
      ],
      "max": [
        0.999180018901825,
        2.142292022705078,
        1.0921529531478882
      ],
      "type": "VEC3",
      "bufferView": 0,
      "byteOffset": 0
    },
    {
      "name": "crates_stacked-Mesh_0_normals",
      "componentType": 5126,
      "count": 2246,
      "min": [
        -0.9971001744270325,
        -1,
        -0.9971001744270325
      ],
      "max": [
        0.9971001744270325,
        1,
        0.9971001744270325
      ],
      "type": "VEC3",
      "bufferView": 1,
      "byteOffset": 0
    },
    {
      "name": "crates_stacked-Mesh_0_texcoords",
      "componentType": 5126,
      "count": 2246,
      "min": [
        0.13897599279880524,
        0.005884999874979258
      ],
      "max": [
        0.8448179960250854,
        0.4820519983768463
      ],
      "type": "VEC2",
      "bufferView": 2,
      "byteOffset": 0
    },
    {
      "name": "crates_stacked-Mesh_0_indices",
      "componentType": 5123,
      "count": 3993,
      "min": [
        0
      ],
      "max": [
        2245
      ],
      "type": "SCALAR",
      "bufferView": 3,
      "byteOffset": 0
    }
  ],
  "asset": {
    "generator": "obj2gltf",
    "version": "2.0"
  },
  "buffers": [
    {
      "name": "crates_stacked",
      "byteLength": 96908,
      "uri": "data:application/octet-stream;base64,"
    }
  ],
  "bufferViews": [
    {
      "name": "bufferView_0",
      "buffer": 0,
      "byteLength": 26952,
      "byteOffset": 0,
      "byteStride": 12,
      "target": 34962
    },
    {
      "name": "bufferView_1",
      "buffer": 0,
      "byteLength": 26952,
      "byteOffset": 26952,
      "byteStride": 12,
      "target": 34962
    },
    {
      "name": "bufferView_2",
      "buffer": 0,
      "byteLength": 17968,
      "byteOffset": 53904,
      "byteStride": 8,
      "target": 34962
    },
    {
      "name": "bufferView_3",
      "buffer": 0,
      "byteLength": 7988,
      "byteOffset": 71872,
      "target": 34963
    },
    {
      "buffer": 0,
      "byteOffset": 79860,
      "byteLength": 17047
    }
  ],
  "images": [
    {
      "name": "dungeon_texture",
      "mimeType": "image/png",
      "bufferView": 4
    }
  ],
  "materials": [
    {
      "name": "texture",
      "pbrMetallicRoughness": {
        "baseColorTexture": {
          "index": 0
        },
        "baseColorFactor": [
          1,
          1,
          1,
          1
        ],
        "metallicFactor": 0,
        "roughnessFactor": 0.697499987
      },
      "emissiveFactor": [
        0,
        0,
        0
      ],
      "alphaMode": "OPAQUE",
      "doubleSided": false
    }
  ],
  "meshes": [
    {
      "name": "crates_stacked-Mesh",
      "primitives": [
        {
          "attributes": {
            "POSITION": 0,
            "NORMAL": 1,
            "TEXCOORD_0": 2
          },
          "indices": 3,
          "material": 0,
          "mode": 4
        }
      ]
    }
  ],
  "nodes": [
    {
      "name": "crates_stacked",
      "mesh": 0
    }
  ],
  "samplers": [
    {
      "wrapS": 10497,
      "wrapT": 10497
    }
  ],
  "scene": 0,
  "scenes": [
    {
      "nodes": [
        0
      ]
    }
  ],
  "textures": [
    {
      "name": "dungeon_texture",
      "sampler": 0,
      "source": 0
    }
  ]
}
