{
  "accessors": [
    {
      "name": "floor_tile_small_weeds_B-Mesh_0_positions",
      "componentType": 5126,
      "count": 556,
      "min": [
        -1,
        -0.10000000149011612,
        -1
      ],
      "max": [
        1,
        0.1954759955406189,
        1
      ],
      "type": "VEC3",
      "bufferView": 0,
      "byteOffset": 0
    },
    {
      "name": "floor_tile_small_weeds_B-Mesh_0_normals",
      "componentType": 5126,
      "count": 556,
      "min": [
        -1,
        -0.9366851449012756,
        -1
      ],
      "max": [
        1,
        1,
        1
      ],
      "type": "VEC3",
      "bufferView": 1,
      "byteOffset": 0
    },
    {
      "name": "floor_tile_small_weeds_B-Mesh_0_texcoords",
      "componentType": 5126,
      "count": 556,
      "min": [
        0.03235099837183952,
        0.09821400046348572
      ],
      "max": [
        0.7223849892616272,
        0.7042149901390076
      ],
      "type": "VEC2",
      "bufferView": 2,
      "byteOffset": 0
    },
    {
      "name": "floor_tile_small_weeds_B-Mesh_0_indices",
      "componentType": 5123,
      "count": 1341,
      "min": [
        0
      ],
      "max": [
        555
      ],
      "type": "SCALAR",
      "bufferView": 3,
      "byteOffset": 0
    }
  ],
  "asset": {
    "generator": "obj2gltf",
    "version": "2.0"
  },
  "buffers": [
    {
      "name": "floor_tile_small_weeds_B",
      "byteLength": 37524,
      "uri": "data:application/octet-stream;base64,"
    }
  ],
  "bufferViews": [
    {
      "name": "bufferView_0",
      "buffer": 0,
      "byteLength": 6672,
      "byteOffset": 0,
      "byteStride": 12,
      "target": 34962
    },
    {
      "name": "bufferView_1",
      "buffer": 0,
      "byteLength": 6672,
      "byteOffset": 6672,
      "byteStride": 12,
      "target": 34962
    },
    {
      "name": "bufferView_2",
      "buffer": 0,
      "byteLength": 4448,
      "byteOffset": 13344,
      "byteStride": 8,
      "target": 34962
    },
    {
      "name": "bufferView_3",
      "buffer": 0,
      "byteLength": 2684,
      "byteOffset": 17792,
      "target": 34963
    },
    {
      "buffer": 0,
      "byteOffset": 20476,
      "byteLength": 17047
    }
  ],
  "images": [
    {
      "name": "dungeon_texture",
      "mimeType": "image/png",
      "bufferView": 4
    }
  ],
  "materials": [
    {
      "name": "texture",
      "pbrMetallicRoughness": {
        "baseColorTexture": {
          "index": 0
        },
        "baseColorFactor": [
          1,
          1,
          1,
          1
        ],
        "metallicFactor": 0,
        "roughnessFactor": 0.697499987
      },
      "emissiveFactor": [
        0,
        0,
        0
      ],
      "alphaMode": "OPAQUE",
      "doubleSided": false
    }
  ],
  "meshes": [
    {
      "name": "floor_tile_small_weeds_B-Mesh",
      "primitives": [
        {
          "attributes": {
            "POSITION": 0,
            "NORMAL": 1,
            "TEXCOORD_0": 2
          },
          "indices": 3,
          "material": 0,
          "mode": 4
        }
      ]
    }
  ],
  "nodes": [
    {
      "name": "floor_tile_small_weeds_B",
      "mesh": 0
    }
  ],
  "samplers": [
    {
      "wrapS": 10497,
      "wrapT": 10497
    }
  ],
  "scene": 0,
  "scenes": [
    {
      "nodes": [
        0
      ]
    }
  ],
  "textures": [
    {
      "name": "dungeon_texture",
      "sampler": 0,
      "source": 0
    }
  ]
}
