{
  "accessors": [
    {
      "name": "floor_dirt_small_weeds-Mesh_0_positions",
      "componentType": 5126,
      "count": 534,
      "min": [
        -1.0000120401382446,
        -0.10000000149011612,
        -1
      ],
      "max": [
        0.9999880194664001,
        0.1954759955406189,
        1
      ],
      "type": "VEC3",
      "bufferView": 0,
      "byteOffset": 0
    },
    {
      "name": "floor_dirt_small_weeds-Mesh_0_normals",
      "componentType": 5126,
      "count": 534,
      "min": [
        -1,
        -0.9366910457611084,
        -1
      ],
      "max": [
        1,
        1,
        1
      ],
      "type": "VEC3",
      "bufferView": 1,
      "byteOffset": 0
    },
    {
      "name": "floor_dirt_small_weeds-Mesh_0_texcoords",
      "componentType": 5126,
      "count": 534,
      "min": [
        0.03235099837183952,
        0.014449999667704105
      ],
      "max": [
        0.7223849892616272,
        0.7042149901390076
      ],
      "type": "VEC2",
      "bufferView": 2,
      "byteOffset": 0
    },
    {
      "name": "floor_dirt_small_weeds-Mesh_0_indices",
      "componentType": 5123,
      "count": 1248,
      "min": [
        0
      ],
      "max": [
        533
      ],
      "type": "SCALAR",
      "bufferView": 3,
      "byteOffset": 0
    }
  ],
  "asset": {
    "generator": "obj2gltf",
    "version": "2.0"
  },
  "buffers": [
    {
      "name": "floor_dirt_small_weeds",
      "byteLength": 36632,
      "uri": "data:application/octet-stream;base64,"
    }
  ],
  "bufferViews": [
    {
      "name": "bufferView_0",
      "buffer": 0,
      "byteLength": 6408,
      "byteOffset": 0,
      "byteStride": 12,
      "target": 34962
    },
    {
      "name": "bufferView_1",
      "buffer": 0,
      "byteLength": 6408,
      "byteOffset": 6408,
      "byteStride": 12,
      "target": 34962
    },
    {
      "name": "bufferView_2",
      "buffer": 0,
      "byteLength": 4272,
      "byteOffset": 12816,
      "byteStride": 8,
      "target": 34962
    },
    {
      "name": "bufferView_3",
      "buffer": 0,
      "byteLength": 2496,
      "byteOffset": 17088,
      "target": 34963
    },
    {
      "buffer": 0,
      "byteOffset": 19584,
      "byteLength": 17047
    }
  ],
  "images": [
    {
      "name": "dungeon_texture",
      "mimeType": "image/png",
      "bufferView": 4
    }
  ],
  "materials": [
    {
      "name": "texture",
      "pbrMetallicRoughness": {
        "baseColorTexture": {
          "index": 0
        },
        "baseColorFactor": [
          1,
          1,
          1,
          1
        ],
        "metallicFactor": 0,
        "roughnessFactor": 0.697499987
      },
      "emissiveFactor": [
        0,
        0,
        0
      ],
      "alphaMode": "OPAQUE",
      "doubleSided": false
    }
  ],
  "meshes": [
    {
      "name": "floor_dirt_small_weeds-Mesh",
      "primitives": [
        {
          "attributes": {
            "POSITION": 0,
            "NORMAL": 1,
            "TEXCOORD_0": 2
          },
          "indices": 3,
          "material": 0,
          "mode": 4
        }
      ]
    }
  ],
  "nodes": [
    {
      "name": "floor_dirt_small_weeds",
      "mesh": 0
    }
  ],
  "samplers": [
    {
      "wrapS": 10497,
      "wrapT": 10497
    }
  ],
  "scene": 0,
  "scenes": [
    {
      "nodes": [
        0
      ]
    }
  ],
  "textures": [
    {
      "name": "dungeon_texture",
      "sampler": 0,
      "source": 0
    }
  ]
}
