{
  "accessors": [
    {
      "name": "keyring_hanging-Mesh_0_positions",
      "componentType": 5126,
      "count": 714,
      "min": [
        -0.33983200788497925,
        -1.1963369846343994,
        -0.15898500382900238
      ],
      "max": [
        0.3398289978504181,
        0.02319600060582161,
        0.2245129942893982
      ],
      "type": "VEC3",
      "bufferView": 0,
      "byteOffset": 0
    },
    {
      "name": "keyring_hanging-Mesh_0_normals",
      "componentType": 5126,
      "count": 714,
      "min": [
        -1,
        -0.9957776665687561,
        -1
      ],
      "max": [
        1,
        0.9957776665687561,
        1
      ],
      "type": "VEC3",
      "bufferView": 1,
      "byteOffset": 0
    },
    {
      "name": "keyring_hanging-Mesh_0_texcoords",
      "componentType": 5126,
      "count": 714,
      "min": [
        0.14353400468826294,
        0.01583999954164028
      ],
      "max": [
        0.9642000198364258,
        0.7439879775047302
      ],
      "type": "VEC2",
      "bufferView": 2,
      "byteOffset": 0
    },
    {
      "name": "keyring_hanging-Mesh_0_indices",
      "componentType": 5123,
      "count": 2184,
      "min": [
        0
      ],
      "max": [
        713
      ],
      "type": "SCALAR",
      "bufferView": 3,
      "byteOffset": 0
    }
  ],
  "asset": {
    "generator": "obj2gltf",
    "version": "2.0"
  },
  "buffers": [
    {
      "name": "keyring_hanging",
      "byteLength": 44264,
      "uri": "data:application/octet-stream;base64,"
    }
  ],
  "bufferViews": [
    {
      "name": "bufferView_0",
      "buffer": 0,
      "byteLength": 8568,
      "byteOffset": 0,
      "byteStride": 12,
      "target": 34962
    },
    {
      "name": "bufferView_1",
      "buffer": 0,
      "byteLength": 8568,
      "byteOffset": 8568,
      "byteStride": 12,
      "target": 34962
    },
    {
      "name": "bufferView_2",
      "buffer": 0,
      "byteLength": 5712,
      "byteOffset": 17136,
      "byteStride": 8,
      "target": 34962
    },
    {
      "name": "bufferView_3",
      "buffer": 0,
      "byteLength": 4368,
      "byteOffset": 22848,
      "target": 34963
    },
    {
      "buffer": 0,
      "byteOffset": 27216,
      "byteLength": 17047
    }
  ],
  "images": [
    {
      "name": "dungeon_texture",
      "mimeType": "image/png",
      "bufferView": 4
    }
  ],
  "materials": [
    {
      "name": "texture",
      "pbrMetallicRoughness": {
        "baseColorTexture": {
          "index": 0
        },
        "baseColorFactor": [
          1,
          1,
          1,
          1
        ],
        "metallicFactor": 0,
        "roughnessFactor": 0.697499987
      },
      "emissiveFactor": [
        0,
        0,
        0
      ],
      "alphaMode": "OPAQUE",
      "doubleSided": false
    }
  ],
  "meshes": [
    {
      "name": "keyring_hanging-Mesh",
      "primitives": [
        {
          "attributes": {
            "POSITION": 0,
            "NORMAL": 1,
            "TEXCOORD_0": 2
          },
          "indices": 3,
          "material": 0,
          "mode": 4
        }
      ]
    }
  ],
  "nodes": [
    {
      "name": "keyring_hanging",
      "mesh": 0
    }
  ],
  "samplers": [
    {
      "wrapS": 10497,
      "wrapT": 10497
    }
  ],
  "scene": 0,
  "scenes": [
    {
      "nodes": [
        0
      ]
    }
  ],
  "textures": [
    {
      "name": "dungeon_texture",
      "sampler": 0,
      "source": 0
    }
  ]
}
