{
  "accessors": [
    {
      "name": "plate_food_B-Mesh_0_positions",
      "componentType": 5126,
      "count": 325,
      "min": [
        -0.4854620099067688,
        9.999999974752427e-7,
        -0.4858439862728119
      ],
      "max": [
        0.4851149916648865,
        0.2361059933900833,
        0.484732985496521
      ],
      "type": "VEC3",
      "bufferView": 0,
      "byteOffset": 0
    },
    {
      "name": "plate_food_B-Mesh_0_normals",
      "componentType": 5126,
      "count": 325,
      "min": [
        -0.99943608045578,
        -1,
        -0.9971761703491211
      ],
      "max": [
        0.9971761703491211,
        1,
        0.9971761703491211
      ],
      "type": "VEC3",
      "bufferView": 1,
      "byteOffset": 0
    },
    {
      "name": "plate_food_B-Mesh_0_texcoords",
      "componentType": 5126,
      "count": 325,
      "min": [
        0.0221599992364645,
        0.058097001165151596
      ],
      "max": [
        0.7038829922676086,
        0.7461569905281067
      ],
      "type": "VEC2",
      "bufferView": 2,
      "byteOffset": 0
    },
    {
      "name": "plate_food_B-Mesh_0_indices",
      "componentType": 5123,
      "count": 918,
      "min": [
        0
      ],
      "max": [
        324
      ],
      "type": "SCALAR",
      "bufferView": 3,
      "byteOffset": 0
    }
  ],
  "asset": {
    "generator": "obj2gltf",
    "version": "2.0"
  },
  "buffers": [
    {
      "name": "plate_food_B",
      "byteLength": 29284,
      "uri": "data:application/octet-stream;base64,"
    }
  ],
  "bufferViews": [
    {
      "name": "bufferView_0",
      "buffer": 0,
      "byteLength": 3900,
      "byteOffset": 0,
      "byteStride": 12,
      "target": 34962
    },
    {
      "name": "bufferView_1",
      "buffer": 0,
      "byteLength": 3900,
      "byteOffset": 3900,
      "byteStride": 12,
      "target": 34962
    },
    {
      "name": "bufferView_2",
      "buffer": 0,
      "byteLength": 2600,
      "byteOffset": 7800,
      "byteStride": 8,
      "target": 34962
    },
    {
      "name": "bufferView_3",
      "buffer": 0,
      "byteLength": 1836,
      "byteOffset": 10400,
      "target": 34963
    },
    {
      "buffer": 0,
      "byteOffset": 12236,
      "byteLength": 17047
    }
  ],
  "images": [
    {
      "name": "dungeon_texture",
      "mimeType": "image/png",
      "bufferView": 4
    }
  ],
  "materials": [
    {
      "name": "texture",
      "pbrMetallicRoughness": {
        "baseColorTexture": {
          "index": 0
        },
        "baseColorFactor": [
          1,
          1,
          1,
          1
        ],
        "metallicFactor": 0,
        "roughnessFactor": 0.697499987
      },
      "emissiveFactor": [
        0,
        0,
        0
      ],
      "alphaMode": "OPAQUE",
      "doubleSided": false
    }
  ],
  "meshes": [
    {
      "name": "plate_food_B-Mesh",
      "primitives": [
        {
          "attributes": {
            "POSITION": 0,
            "NORMAL": 1,
            "TEXCOORD_0": 2
          },
          "indices": 3,
          "material": 0,
          "mode": 4
        }
      ]
    }
  ],
  "nodes": [
    {
      "name": "plate_food_B",
      "mesh": 0
    }
  ],
  "samplers": [
    {
      "wrapS": 10497,
      "wrapT": 10497
    }
  ],
  "scene": 0,
  "scenes": [
    {
      "nodes": [
        0
      ]
    }
  ],
  "textures": [
    {
      "name": "dungeon_texture",
      "sampler": 0,
      "source": 0
    }
  ]
}
