{
  "accessors": [
    {
      "name": "rubble_large-Mesh_0_positions",
      "componentType": 5126,
      "count": 1200,
      "min": [
        -4.068857192993164,
        0,
        -1.5856540203094482
      ],
      "max": [
        4.060417175292969,
        3.4960880279541016,
        1.5974550247192383
      ],
      "type": "VEC3",
      "bufferView": 0,
      "byteOffset": 0
    },
    {
      "name": "rubble_large-Mesh_0_normals",
      "componentType": 5126,
      "count": 1200,
      "min": [
        -0.9997910261154175,
        -0.998807966709137,
        -0.9996936321258545
      ],
      "max": [
        0.9991098642349243,
        0.9999879598617554,
        0.9998329281806946
      ],
      "type": "VEC3",
      "bufferView": 1,
      "byteOffset": 0
    },
    {
      "name": "rubble_large-Mesh_0_texcoords",
      "componentType": 5126,
      "count": 1200,
      "min": [
        0.9321190118789673,
        0.08113700151443481
      ],
      "max": [
        0.9321190118789673,
        0.2363699972629547
      ],
      "type": "VEC2",
      "bufferView": 2,
      "byteOffset": 0
    },
    {
      "name": "rubble_large-Mesh_0_indices",
      "componentType": 5123,
      "count": 2364,
      "min": [
        0
      ],
      "max": [
        1199
      ],
      "type": "SCALAR",
      "bufferView": 3,
      "byteOffset": 0
    }
  ],
  "asset": {
    "generator": "obj2gltf",
    "version": "2.0"
  },
  "buffers": [
    {
      "name": "rubble_large",
      "byteLength": 60176,
      "uri": "data:application/octet-stream;base64,"
    }
  ],
  "bufferViews": [
    {
      "name": "bufferView_0",
      "buffer": 0,
      "byteLength": 14400,
      "byteOffset": 0,
      "byteStride": 12,
      "target": 34962
    },
    {
      "name": "bufferView_1",
      "buffer": 0,
      "byteLength": 14400,
      "byteOffset": 14400,
      "byteStride": 12,
      "target": 34962
    },
    {
      "name": "bufferView_2",
      "buffer": 0,
      "byteLength": 9600,
      "byteOffset": 28800,
      "byteStride": 8,
      "target": 34962
    },
    {
      "name": "bufferView_3",
      "buffer": 0,
      "byteLength": 4728,
      "byteOffset": 38400,
      "target": 34963
    },
    {
      "buffer": 0,
      "byteOffset": 43128,
      "byteLength": 17047
    }
  ],
  "images": [
    {
      "name": "dungeon_texture",
      "mimeType": "image/png",
      "bufferView": 4
    }
  ],
  "materials": [
    {
      "name": "texture",
      "pbrMetallicRoughness": {
        "baseColorTexture": {
          "index": 0
        },
        "baseColorFactor": [
          1,
          1,
          1,
          1
        ],
        "metallicFactor": 0,
        "roughnessFactor": 0.697499987
      },
      "emissiveFactor": [
        0,
        0,
        0
      ],
      "alphaMode": "OPAQUE",
      "doubleSided": false
    }
  ],
  "meshes": [
    {
      "name": "rubble_large-Mesh",
      "primitives": [
        {
          "attributes": {
            "POSITION": 0,
            "NORMAL": 1,
            "TEXCOORD_0": 2
          },
          "indices": 3,
          "material": 0,
          "mode": 4
        }
      ]
    }
  ],
  "nodes": [
    {
      "name": "rubble_large",
      "mesh": 0
    }
  ],
  "samplers": [
    {
      "wrapS": 10497,
      "wrapT": 10497
    }
  ],
  "scene": 0,
  "scenes": [
    {
      "nodes": [
        0
      ]
    }
  ],
  "textures": [
    {
      "name": "dungeon_texture",
      "sampler": 0,
      "source": 0
    }
  ]
}
