{
  "accessors": [
    {
      "name": "rubble_half-Mesh_0_positions",
      "componentType": 5126,
      "count": 607,
      "min": [
        0,
        0,
        -1.5163040161132812
      ],
      "max": [
        3.9996540546417236,
        3.5,
        1.4836959838867188
      ],
      "type": "VEC3",
      "bufferView": 0,
      "byteOffset": 0
    },
    {
      "name": "rubble_half-Mesh_0_normals",
      "componentType": 5126,
      "count": 607,
      "min": [
        -1,
        -0.996191680431366,
        -0.9993679523468018
      ],
      "max": [
        0.9999995231628418,
        0.9997922778129578,
        0.999592125415802
      ],
      "type": "VEC3",
      "bufferView": 1,
      "byteOffset": 0
    },
    {
      "name": "rubble_half-Mesh_0_texcoords",
      "componentType": 5126,
      "count": 607,
      "min": [
        0.9321190118789673,
        0.08113700151443481
      ],
      "max": [
        0.9321190118789673,
        0.2363699972629547
      ],
      "type": "VEC2",
      "bufferView": 2,
      "byteOffset": 0
    },
    {
      "name": "rubble_half-Mesh_0_indices",
      "componentType": 5123,
      "count": 1170,
      "min": [
        0
      ],
      "max": [
        606
      ],
      "type": "SCALAR",
      "bufferView": 3,
      "byteOffset": 0
    }
  ],
  "asset": {
    "generator": "obj2gltf",
    "version": "2.0"
  },
  "buffers": [
    {
      "name": "rubble_half",
      "byteLength": 38812,
      "uri": "data:application/octet-stream;base64,"
    }
  ],
  "bufferViews": [
    {
      "name": "bufferView_0",
      "buffer": 0,
      "byteLength": 7284,
      "byteOffset": 0,
      "byteStride": 12,
      "target": 34962
    },
    {
      "name": "bufferView_1",
      "buffer": 0,
      "byteLength": 7284,
      "byteOffset": 7284,
      "byteStride": 12,
      "target": 34962
    },
    {
      "name": "bufferView_2",
      "buffer": 0,
      "byteLength": 4856,
      "byteOffset": 14568,
      "byteStride": 8,
      "target": 34962
    },
    {
      "name": "bufferView_3",
      "buffer": 0,
      "byteLength": 2340,
      "byteOffset": 19424,
      "target": 34963
    },
    {
      "buffer": 0,
      "byteOffset": 21764,
      "byteLength": 17047
    }
  ],
  "images": [
    {
      "name": "dungeon_texture",
      "mimeType": "image/png",
      "bufferView": 4
    }
  ],
  "materials": [
    {
      "name": "texture",
      "pbrMetallicRoughness": {
        "baseColorTexture": {
          "index": 0
        },
        "baseColorFactor": [
          1,
          1,
          1,
          1
        ],
        "metallicFactor": 0,
        "roughnessFactor": 0.697499987
      },
      "emissiveFactor": [
        0,
        0,
        0
      ],
      "alphaMode": "OPAQUE",
      "doubleSided": false
    }
  ],
  "meshes": [
    {
      "name": "rubble_half-Mesh",
      "primitives": [
        {
          "attributes": {
            "POSITION": 0,
            "NORMAL": 1,
            "TEXCOORD_0": 2
          },
          "indices": 3,
          "material": 0,
          "mode": 4
        }
      ]
    }
  ],
  "nodes": [
    {
      "name": "rubble_half",
      "mesh": 0
    }
  ],
  "samplers": [
    {
      "wrapS": 10497,
      "wrapT": 10497
    }
  ],
  "scene": 0,
  "scenes": [
    {
      "nodes": [
        0
      ]
    }
  ],
  "textures": [
    {
      "name": "dungeon_texture",
      "sampler": 0,
      "source": 0
    }
  ]
}
