{
  "accessors": [
    {
      "name": "stairs_long_modular_center-Mesh_0_positions",
      "componentType": 5126,
      "count": 106,
      "min": [
        -1,
        0,
        0
      ],
      "max": [
        1,
        4,
        8
      ],
      "type": "VEC3",
      "bufferView": 0,
      "byteOffset": 0
    },
    {
      "name": "stairs_long_modular_center-Mesh_0_normals",
      "componentType": 5126,
      "count": 106,
      "min": [
        0,
        0,
        -1
      ],
      "max": [
        0,
        1,
        1
      ],
      "type": "VEC3",
      "bufferView": 1,
      "byteOffset": 0
    },
    {
      "name": "stairs_long_modular_center-Mesh_0_texcoords",
      "componentType": 5126,
      "count": 106,
      "min": [
        0.05514499917626381,
        0.04503199830651283
      ],
      "max": [
        0.19216099381446838,
        0.18025900423526764
      ],
      "type": "VEC2",
      "bufferView": 2,
      "byteOffset": 0
    },
    {
      "name": "stairs_long_modular_center-Mesh_0_indices",
      "componentType": 5123,
      "count": 162,
      "min": [
        0
      ],
      "max": [
        105
      ],
      "type": "SCALAR",
      "bufferView": 3,
      "byteOffset": 0
    }
  ],
  "asset": {
    "generator": "obj2gltf",
    "version": "2.0"
  },
  "buffers": [
    {
      "name": "stairs_long_modular_center",
      "byteLength": 20764,
      "uri": "data:application/octet-stream;base64,"
    }
  ],
  "bufferViews": [
    {
      "name": "bufferView_0",
      "buffer": 0,
      "byteLength": 1272,
      "byteOffset": 0,
      "byteStride": 12,
      "target": 34962
    },
    {
      "name": "bufferView_1",
      "buffer": 0,
      "byteLength": 1272,
      "byteOffset": 1272,
      "byteStride": 12,
      "target": 34962
    },
    {
      "name": "bufferView_2",
      "buffer": 0,
      "byteLength": 848,
      "byteOffset": 2544,
      "byteStride": 8,
      "target": 34962
    },
    {
      "name": "bufferView_3",
      "buffer": 0,
      "byteLength": 324,
      "byteOffset": 3392,
      "target": 34963
    },
    {
      "buffer": 0,
      "byteOffset": 3716,
      "byteLength": 17047
    }
  ],
  "images": [
    {
      "name": "dungeon_texture",
      "mimeType": "image/png",
      "bufferView": 4
    }
  ],
  "materials": [
    {
      "name": "texture",
      "pbrMetallicRoughness": {
        "baseColorTexture": {
          "index": 0
        },
        "baseColorFactor": [
          1,
          1,
          1,
          1
        ],
        "metallicFactor": 0,
        "roughnessFactor": 0.697499987
      },
      "emissiveFactor": [
        0,
        0,
        0
      ],
      "alphaMode": "OPAQUE",
      "doubleSided": false
    }
  ],
  "meshes": [
    {
      "name": "stairs_long_modular_center-Mesh",
      "primitives": [
        {
          "attributes": {
            "POSITION": 0,
            "NORMAL": 1,
            "TEXCOORD_0": 2
          },
          "indices": 3,
          "material": 0,
          "mode": 4
        }
      ]
    }
  ],
  "nodes": [
    {
      "name": "stairs_long_modular_center",
      "mesh": 0
    }
  ],
  "samplers": [
    {
      "wrapS": 10497,
      "wrapT": 10497
    }
  ],
  "scene": 0,
  "scenes": [
    {
      "nodes": [
        0
      ]
    }
  ],
  "textures": [
    {
      "name": "dungeon_texture",
      "sampler": 0,
      "source": 0
    }
  ]
}
