{
  "accessors": [
    {
      "name": "sword_shield_gold-Mesh_0_positions",
      "componentType": 5126,
      "count": 801,
      "min": [
        -1.1159989833831787,
        -0.8150110244750977,
        -0.08457399904727936
      ],
      "max": [
        1.1160030364990234,
        0.8524349927902222,
        0.25116899609565735
      ],
      "type": "VEC3",
      "bufferView": 0,
      "byteOffset": 0
    },
    {
      "name": "sword_shield_gold-Mesh_0_normals",
      "componentType": 5126,
      "count": 801,
      "min": [
        -0.9927502274513245,
        -0.9884311556816101,
        -1
      ],
      "max": [
        0.9927502274513245,
        0.9999206066131592,
        0.9998072385787964
      ],
      "type": "VEC3",
      "bufferView": 1,
      "byteOffset": 0
    },
    {
      "name": "sword_shield_gold-Mesh_0_texcoords",
      "componentType": 5126,
      "count": 801,
      "min": [
        0.045899998396635056,
        0.04361499845981598
      ],
      "max": [
        0.9735550284385681,
        0.7291120290756226
      ],
      "type": "VEC2",
      "bufferView": 2,
      "byteOffset": 0
    },
    {
      "name": "sword_shield_gold-Mesh_0_indices",
      "componentType": 5123,
      "count": 1626,
      "min": [
        0
      ],
      "max": [
        800
      ],
      "type": "SCALAR",
      "bufferView": 3,
      "byteOffset": 0
    }
  ],
  "asset": {
    "generator": "obj2gltf",
    "version": "2.0"
  },
  "buffers": [
    {
      "name": "sword_shield_gold",
      "byteLength": 45932,
      "uri": "data:application/octet-stream;base64,"
    }
  ],
  "bufferViews": [
    {
      "name": "bufferView_0",
      "buffer": 0,
      "byteLength": 9612,
      "byteOffset": 0,
      "byteStride": 12,
      "target": 34962
    },
    {
      "name": "bufferView_1",
      "buffer": 0,
      "byteLength": 9612,
      "byteOffset": 9612,
      "byteStride": 12,
      "target": 34962
    },
    {
      "name": "bufferView_2",
      "buffer": 0,
      "byteLength": 6408,
      "byteOffset": 19224,
      "byteStride": 8,
      "target": 34962
    },
    {
      "name": "bufferView_3",
      "buffer": 0,
      "byteLength": 3252,
      "byteOffset": 25632,
      "target": 34963
    },
    {
      "buffer": 0,
      "byteOffset": 28884,
      "byteLength": 17047
    }
  ],
  "images": [
    {
      "name": "dungeon_texture",
      "mimeType": "image/png",
      "bufferView": 4
    }
  ],
  "materials": [
    {
      "name": "texture",
      "pbrMetallicRoughness": {
        "baseColorTexture": {
          "index": 0
        },
        "baseColorFactor": [
          1,
          1,
          1,
          1
        ],
        "metallicFactor": 0,
        "roughnessFactor": 0.697499987
      },
      "emissiveFactor": [
        0,
        0,
        0
      ],
      "alphaMode": "OPAQUE",
      "doubleSided": false
    }
  ],
  "meshes": [
    {
      "name": "sword_shield_gold-Mesh",
      "primitives": [
        {
          "attributes": {
            "POSITION": 0,
            "NORMAL": 1,
            "TEXCOORD_0": 2
          },
          "indices": 3,
          "material": 0,
          "mode": 4
        }
      ]
    }
  ],
  "nodes": [
    {
      "name": "sword_shield_gold",
      "mesh": 0
    }
  ],
  "samplers": [
    {
      "wrapS": 10497,
      "wrapT": 10497
    }
  ],
  "scene": 0,
  "scenes": [
    {
      "nodes": [
        0
      ]
    }
  ],
  "textures": [
    {
      "name": "dungeon_texture",
      "sampler": 0,
      "source": 0
    }
  ]
}
