{
  "accessors": [
    {
      "name": "sword_shield_broken-Mesh_0_positions",
      "componentType": 5126,
      "count": 602,
      "min": [
        -0.7585999965667725,
        -0.7929980158805847,
        -0.08457399904727936
      ],
      "max": [
        0.667041003704071,
        1.1692990064620972,
        0.25116899609565735
      ],
      "type": "VEC3",
      "bufferView": 0,
      "byteOffset": 0
    },
    {
      "name": "sword_shield_broken-Mesh_0_normals",
      "componentType": 5126,
      "count": 602,
      "min": [
        -0.9887455701828003,
        -0.9976577758789062,
        -1
      ],
      "max": [
        0.9892385005950928,
        0.99998539686203,
        0.9998074769973755
      ],
      "type": "VEC3",
      "bufferView": 1,
      "byteOffset": 0
    },
    {
      "name": "sword_shield_broken-Mesh_0_texcoords",
      "componentType": 5126,
      "count": 602,
      "min": [
        0.03177599981427193,
        0.05923999845981598
      ],
      "max": [
        0.9297130107879639,
        0.49393200874328613
      ],
      "type": "VEC2",
      "bufferView": 2,
      "byteOffset": 0
    },
    {
      "name": "sword_shield_broken-Mesh_0_indices",
      "componentType": 5123,
      "count": 1188,
      "min": [
        0
      ],
      "max": [
        601
      ],
      "type": "SCALAR",
      "bufferView": 3,
      "byteOffset": 0
    }
  ],
  "asset": {
    "generator": "obj2gltf",
    "version": "2.0"
  },
  "buffers": [
    {
      "name": "sword_shield_broken",
      "byteLength": 38688,
      "uri": "data:application/octet-stream;base64,"
    }
  ],
  "bufferViews": [
    {
      "name": "bufferView_0",
      "buffer": 0,
      "byteLength": 7224,
      "byteOffset": 0,
      "byteStride": 12,
      "target": 34962
    },
    {
      "name": "bufferView_1",
      "buffer": 0,
      "byteLength": 7224,
      "byteOffset": 7224,
      "byteStride": 12,
      "target": 34962
    },
    {
      "name": "bufferView_2",
      "buffer": 0,
      "byteLength": 4816,
      "byteOffset": 14448,
      "byteStride": 8,
      "target": 34962
    },
    {
      "name": "bufferView_3",
      "buffer": 0,
      "byteLength": 2376,
      "byteOffset": 19264,
      "target": 34963
    },
    {
      "buffer": 0,
      "byteOffset": 21640,
      "byteLength": 17047
    }
  ],
  "images": [
    {
      "name": "dungeon_texture",
      "mimeType": "image/png",
      "bufferView": 4
    }
  ],
  "materials": [
    {
      "name": "texture",
      "pbrMetallicRoughness": {
        "baseColorTexture": {
          "index": 0
        },
        "baseColorFactor": [
          1,
          1,
          1,
          1
        ],
        "metallicFactor": 0,
        "roughnessFactor": 0.697499987
      },
      "emissiveFactor": [
        0,
        0,
        0
      ],
      "alphaMode": "OPAQUE",
      "doubleSided": false
    }
  ],
  "meshes": [
    {
      "name": "sword_shield_broken-Mesh",
      "primitives": [
        {
          "attributes": {
            "POSITION": 0,
            "NORMAL": 1,
            "TEXCOORD_0": 2
          },
          "indices": 3,
          "material": 0,
          "mode": 4
        }
      ]
    }
  ],
  "nodes": [
    {
      "name": "sword_shield_broken",
      "mesh": 0
    }
  ],
  "samplers": [
    {
      "wrapS": 10497,
      "wrapT": 10497
    }
  ],
  "scene": 0,
  "scenes": [
    {
      "nodes": [
        0
      ]
    }
  ],
  "textures": [
    {
      "name": "dungeon_texture",
      "sampler": 0,
      "source": 0
    }
  ]
}
