{
  "accessors": [
    {
      "name": "table_medium_broken-Mesh_0_positions",
      "componentType": 5126,
      "count": 477,
      "min": [
        -1.0508500337600708,
        -0.0018260000506415963,
        -0.9606289863586426
      ],
      "max": [
        1.2258659601211548,
        0.9699370265007019,
        1.4677640199661255
      ],
      "type": "VEC3",
      "bufferView": 0,
      "byteOffset": 0
    },
    {
      "name": "table_medium_broken-Mesh_0_normals",
      "componentType": 5126,
      "count": 477,
      "min": [
        -0.9953119158744812,
        -1,
        -1
      ],
      "max": [
        0.9937534928321838,
        1,
        1
      ],
      "type": "VEC3",
      "bufferView": 1,
      "byteOffset": 0
    },
    {
      "name": "table_medium_broken-Mesh_0_texcoords",
      "componentType": 5126,
      "count": 477,
      "min": [
        0.5127679705619812,
        0.0362900011241436
      ],
      "max": [
        0.5973039865493774,
        0.2137099951505661
      ],
      "type": "VEC2",
      "bufferView": 2,
      "byteOffset": 0
    },
    {
      "name": "table_medium_broken-Mesh_0_indices",
      "componentType": 5123,
      "count": 741,
      "min": [
        0
      ],
      "max": [
        476
      ],
      "type": "SCALAR",
      "bufferView": 3,
      "byteOffset": 0
    }
  ],
  "asset": {
    "generator": "obj2gltf",
    "version": "2.0"
  },
  "buffers": [
    {
      "name": "table_medium_broken",
      "byteLength": 33796,
      "uri": "data:application/octet-stream;base64,"
    }
  ],
  "bufferViews": [
    {
      "name": "bufferView_0",
      "buffer": 0,
      "byteLength": 5724,
      "byteOffset": 0,
      "byteStride": 12,
      "target": 34962
    },
    {
      "name": "bufferView_1",
      "buffer": 0,
      "byteLength": 5724,
      "byteOffset": 5724,
      "byteStride": 12,
      "target": 34962
    },
    {
      "name": "bufferView_2",
      "buffer": 0,
      "byteLength": 3816,
      "byteOffset": 11448,
      "byteStride": 8,
      "target": 34962
    },
    {
      "name": "bufferView_3",
      "buffer": 0,
      "byteLength": 1484,
      "byteOffset": 15264,
      "target": 34963
    },
    {
      "buffer": 0,
      "byteOffset": 16748,
      "byteLength": 17047
    }
  ],
  "images": [
    {
      "name": "dungeon_texture",
      "mimeType": "image/png",
      "bufferView": 4
    }
  ],
  "materials": [
    {
      "name": "texture",
      "pbrMetallicRoughness": {
        "baseColorTexture": {
          "index": 0
        },
        "baseColorFactor": [
          1,
          1,
          1,
          1
        ],
        "metallicFactor": 0,
        "roughnessFactor": 0.697499987
      },
      "emissiveFactor": [
        0,
        0,
        0
      ],
      "alphaMode": "OPAQUE",
      "doubleSided": false
    }
  ],
  "meshes": [
    {
      "name": "table_medium_broken-Mesh",
      "primitives": [
        {
          "attributes": {
            "POSITION": 0,
            "NORMAL": 1,
            "TEXCOORD_0": 2
          },
          "indices": 3,
          "material": 0,
          "mode": 4
        }
      ]
    }
  ],
  "nodes": [
    {
      "name": "table_medium_broken",
      "mesh": 0
    }
  ],
  "samplers": [
    {
      "wrapS": 10497,
      "wrapT": 10497
    }
  ],
  "scene": 0,
  "scenes": [
    {
      "nodes": [
        0
      ]
    }
  ],
  "textures": [
    {
      "name": "dungeon_texture",
      "sampler": 0,
      "source": 0
    }
  ]
}
