{
  "accessors": [
    {
      "name": "torch_mounted-Mesh_0_positions",
      "componentType": 5126,
      "count": 388,
      "min": [
        -0.2751370072364807,
        -0.3808070123195648,
        0
      ],
      "max": [
        0.2751469910144806,
        0.681659996509552,
        0.6158400177955627
      ],
      "type": "VEC3",
      "bufferView": 0,
      "byteOffset": 0
    },
    {
      "name": "torch_mounted-Mesh_0_normals",
      "componentType": 5126,
      "count": 388,
      "min": [
        -1,
        -1,
        -0.9993518590927124
      ],
      "max": [
        1,
        1,
        0.9999679923057556
      ],
      "type": "VEC3",
      "bufferView": 1,
      "byteOffset": 0
    },
    {
      "name": "torch_mounted-Mesh_0_texcoords",
      "componentType": 5126,
      "count": 388,
      "min": [
        0.13497300446033478,
        0.03095100075006485
      ],
      "max": [
        0.9406710267066956,
        0.23728600144386292
      ],
      "type": "VEC2",
      "bufferView": 2,
      "byteOffset": 0
    },
    {
      "name": "torch_mounted-Mesh_0_indices",
      "componentType": 5123,
      "count": 834,
      "min": [
        0
      ],
      "max": [
        387
      ],
      "type": "SCALAR",
      "bufferView": 3,
      "byteOffset": 0
    }
  ],
  "asset": {
    "generator": "obj2gltf",
    "version": "2.0"
  },
  "buffers": [
    {
      "name": "torch_mounted",
      "byteLength": 31132,
      "uri": "data:application/octet-stream;base64,"
    }
  ],
  "bufferViews": [
    {
      "name": "bufferView_0",
      "buffer": 0,
      "byteLength": 4656,
      "byteOffset": 0,
      "byteStride": 12,
      "target": 34962
    },
    {
      "name": "bufferView_1",
      "buffer": 0,
      "byteLength": 4656,
      "byteOffset": 4656,
      "byteStride": 12,
      "target": 34962
    },
    {
      "name": "bufferView_2",
      "buffer": 0,
      "byteLength": 3104,
      "byteOffset": 9312,
      "byteStride": 8,
      "target": 34962
    },
    {
      "name": "bufferView_3",
      "buffer": 0,
      "byteLength": 1668,
      "byteOffset": 12416,
      "target": 34963
    },
    {
      "buffer": 0,
      "byteOffset": 14084,
      "byteLength": 17047
    }
  ],
  "images": [
    {
      "name": "dungeon_texture",
      "mimeType": "image/png",
      "bufferView": 4
    }
  ],
  "materials": [
    {
      "name": "texture",
      "pbrMetallicRoughness": {
        "baseColorTexture": {
          "index": 0
        },
        "baseColorFactor": [
          1,
          1,
          1,
          1
        ],
        "metallicFactor": 0,
        "roughnessFactor": 0.697499987
      },
      "emissiveFactor": [
        0,
        0,
        0
      ],
      "alphaMode": "OPAQUE",
      "doubleSided": false
    }
  ],
  "meshes": [
    {
      "name": "torch_mounted-Mesh",
      "primitives": [
        {
          "attributes": {
            "POSITION": 0,
            "NORMAL": 1,
            "TEXCOORD_0": 2
          },
          "indices": 3,
          "material": 0,
          "mode": 4
        }
      ]
    }
  ],
  "nodes": [
    {
      "name": "torch_mounted",
      "mesh": 0
    }
  ],
  "samplers": [
    {
      "wrapS": 10497,
      "wrapT": 10497
    }
  ],
  "scene": 0,
  "scenes": [
    {
      "nodes": [
        0
      ]
    }
  ],
  "textures": [
    {
      "name": "dungeon_texture",
      "sampler": 0,
      "source": 0
    }
  ]
}
