{
  "accessors": [
    {
      "name": "trunk_medium_B-Mesh_0_positions",
      "componentType": 5126,
      "count": 254,
      "min": [
        -0.47651898860931396,
        0,
        -0.43752598762512207
      ],
      "max": [
        0.47651898860931396,
        0.7264689803123474,
        0.4375250041484833
      ],
      "type": "VEC3",
      "bufferView": 0,
      "byteOffset": 0
    },
    {
      "name": "trunk_medium_B-Mesh_0_normals",
      "componentType": 5126,
      "count": 254,
      "min": [
        -1,
        -1,
        -0.9999980926513672
      ],
      "max": [
        1,
        1,
        0.9999980926513672
      ],
      "type": "VEC3",
      "bufferView": 1,
      "byteOffset": 0
    },
    {
      "name": "trunk_medium_B-Mesh_0_texcoords",
      "componentType": 5126,
      "count": 254,
      "min": [
        0.13231199979782104,
        0.10641399770975113
      ],
      "max": [
        0.9719640016555786,
        0.24562999606132507
      ],
      "type": "VEC2",
      "bufferView": 2,
      "byteOffset": 0
    },
    {
      "name": "trunk_medium_B-Mesh_0_indices",
      "componentType": 5123,
      "count": 444,
      "min": [
        0
      ],
      "max": [
        253
      ],
      "type": "SCALAR",
      "bufferView": 3,
      "byteOffset": 0
    }
  ],
  "asset": {
    "generator": "obj2gltf",
    "version": "2.0"
  },
  "buffers": [
    {
      "name": "trunk_medium_B",
      "byteLength": 26064,
      "uri": "data:application/octet-stream;base64,"
    }
  ],
  "bufferViews": [
    {
      "name": "bufferView_0",
      "buffer": 0,
      "byteLength": 3048,
      "byteOffset": 0,
      "byteStride": 12,
      "target": 34962
    },
    {
      "name": "bufferView_1",
      "buffer": 0,
      "byteLength": 3048,
      "byteOffset": 3048,
      "byteStride": 12,
      "target": 34962
    },
    {
      "name": "bufferView_2",
      "buffer": 0,
      "byteLength": 2032,
      "byteOffset": 6096,
      "byteStride": 8,
      "target": 34962
    },
    {
      "name": "bufferView_3",
      "buffer": 0,
      "byteLength": 888,
      "byteOffset": 8128,
      "target": 34963
    },
    {
      "buffer": 0,
      "byteOffset": 9016,
      "byteLength": 17047
    }
  ],
  "images": [
    {
      "name": "dungeon_texture",
      "mimeType": "image/png",
      "bufferView": 4
    }
  ],
  "materials": [
    {
      "name": "texture",
      "pbrMetallicRoughness": {
        "baseColorTexture": {
          "index": 0
        },
        "baseColorFactor": [
          1,
          1,
          1,
          1
        ],
        "metallicFactor": 0,
        "roughnessFactor": 0.697499987
      },
      "emissiveFactor": [
        0,
        0,
        0
      ],
      "alphaMode": "OPAQUE",
      "doubleSided": false
    }
  ],
  "meshes": [
    {
      "name": "trunk_medium_B-Mesh",
      "primitives": [
        {
          "attributes": {
            "POSITION": 0,
            "NORMAL": 1,
            "TEXCOORD_0": 2
          },
          "indices": 3,
          "material": 0,
          "mode": 4
        }
      ]
    }
  ],
  "nodes": [
    {
      "name": "trunk_medium_B",
      "mesh": 0
    }
  ],
  "samplers": [
    {
      "wrapS": 10497,
      "wrapT": 10497
    }
  ],
  "scene": 0,
  "scenes": [
    {
      "nodes": [
        0
      ]
    }
  ],
  "textures": [
    {
      "name": "dungeon_texture",
      "sampler": 0,
      "source": 0
    }
  ]
}
