{
  "accessors": [
    {
      "name": "floor_tile_large-Mesh_0_positions",
      "componentType": 5126,
      "count": 272,
      "min": [
        0,
        -0.10000000149011612,
        -2
      ],
      "max": [
        4,
        0.05000000074505806,
        2
      ],
      "type": "VEC3",
      "bufferView": 0,
      "byteOffset": 0
    },
    {
      "name": "floor_tile_large-Mesh_0_normals",
      "componentType": 5126,
      "count": 272,
      "min": [
        -1,
        0,
        -1
      ],
      "max": [
        1,
        1,
        1
      ],
      "type": "VEC3",
      "bufferView": 1,
      "byteOffset": 0
    },
    {
      "name": "floor_tile_large-Mesh_0_texcoords",
      "componentType": 5126,
      "count": 272,
      "min": [
        0.6330839991569519,
        0.09821400046348572
      ],
      "max": [
        0.7223849892616272,
        0.19330300390720367
      ],
      "type": "VEC2",
      "bufferView": 2,
      "byteOffset": 0
    },
    {
      "name": "floor_tile_large-Mesh_0_indices",
      "componentType": 5123,
      "count": 564,
      "min": [
        0
      ],
      "max": [
        271
      ],
      "type": "SCALAR",
      "bufferView": 3,
      "byteOffset": 0
    },
    {
      "name": "floor_tile_large.001-Mesh_0_positions",
      "componentType": 5126,
      "count": 272,
      "min": [
        -4,
        -0.10000000149011612,
        -2
      ],
      "max": [
        0,
        0.05000000074505806,
        2
      ],
      "type": "VEC3",
      "bufferView": 0,
      "byteOffset": 3264
    },
    {
      "name": "floor_tile_large.001-Mesh_0_normals",
      "componentType": 5126,
      "count": 272,
      "min": [
        -1,
        0,
        -1
      ],
      "max": [
        1,
        1,
        1
      ],
      "type": "VEC3",
      "bufferView": 1,
      "byteOffset": 3264
    },
    {
      "name": "floor_tile_large.001-Mesh_0_texcoords",
      "componentType": 5126,
      "count": 272,
      "min": [
        0.6330839991569519,
        0.09821400046348572
      ],
      "max": [
        0.7223849892616272,
        0.19330300390720367
      ],
      "type": "VEC2",
      "bufferView": 2,
      "byteOffset": 2176
    },
    {
      "name": "floor_tile_large.001-Mesh_0_indices",
      "componentType": 5123,
      "count": 564,
      "min": [
        0
      ],
      "max": [
        271
      ],
      "type": "SCALAR",
      "bufferView": 3,
      "byteOffset": 1128
    },
    {
      "name": "wall-Mesh_0_positions",
      "componentType": 5126,
      "count": 1008,
      "min": [
        0,
        0,
        -2.5
      ],
      "max": [
        4,
        4,
        -1.5
      ],
      "type": "VEC3",
      "bufferView": 0,
      "byteOffset": 6528
    },
    {
      "name": "wall-Mesh_0_normals",
      "componentType": 5126,
      "count": 1008,
      "min": [
        -1,
        -0.8767811059951782,
        -1
      ],
      "max": [
        1,
        1,
        1
      ],
      "type": "VEC3",
      "bufferView": 1,
      "byteOffset": 6528
    },
    {
      "name": "wall-Mesh_0_texcoords",
      "componentType": 5126,
      "count": 1008,
      "min": [
        0.05514499917626381,
        0.006211999803781509
      ],
      "max": [
        0.2152940034866333,
        0.21358899772167206
      ],
      "type": "VEC2",
      "bufferView": 2,
      "byteOffset": 4352
    },
    {
      "name": "wall-Mesh_0_indices",
      "componentType": 5123,
      "count": 1482,
      "min": [
        0
      ],
      "max": [
        1007
      ],
      "type": "SCALAR",
      "bufferView": 3,
      "byteOffset": 2256
    },
    {
      "name": "wall.001-Mesh_0_positions",
      "componentType": 5126,
      "count": 1008,
      "min": [
        0,
        0,
        1.5
      ],
      "max": [
        4,
        4,
        2.5
      ],
      "type": "VEC3",
      "bufferView": 0,
      "byteOffset": 18624
    },
    {
      "name": "wall.001-Mesh_0_normals",
      "componentType": 5126,
      "count": 1008,
      "min": [
        -1,
        -0.8767811059951782,
        -1
      ],
      "max": [
        1,
        1,
        1
      ],
      "type": "VEC3",
      "bufferView": 1,
      "byteOffset": 18624
    },
    {
      "name": "wall.001-Mesh_0_texcoords",
      "componentType": 5126,
      "count": 1008,
      "min": [
        0.05514499917626381,
        0.006211999803781509
      ],
      "max": [
        0.2152940034866333,
        0.21358899772167206
      ],
      "type": "VEC2",
      "bufferView": 2,
      "byteOffset": 12416
    },
    {
      "name": "wall.001-Mesh_0_indices",
      "componentType": 5123,
      "count": 1482,
      "min": [
        0
      ],
      "max": [
        1007
      ],
      "type": "SCALAR",
      "bufferView": 3,
      "byteOffset": 5220
    },
    {
      "name": "wall.002-Mesh_0_positions",
      "componentType": 5126,
      "count": 1008,
      "min": [
        -4,
        0,
        1.5
      ],
      "max": [
        0,
        4,
        2.5
      ],
      "type": "VEC3",
      "bufferView": 0,
      "byteOffset": 30720
    },
    {
      "name": "wall.002-Mesh_0_normals",
      "componentType": 5126,
      "count": 1008,
      "min": [
        -1,
        -0.8767811059951782,
        -1
      ],
      "max": [
        1,
        1,
        1
      ],
      "type": "VEC3",
      "bufferView": 1,
      "byteOffset": 30720
    },
    {
      "name": "wall.002-Mesh_0_texcoords",
      "componentType": 5126,
      "count": 1008,
      "min": [
        0.05514499917626381,
        0.006211999803781509
      ],
      "max": [
        0.2152940034866333,
        0.21358899772167206
      ],
      "type": "VEC2",
      "bufferView": 2,
      "byteOffset": 20480
    },
    {
      "name": "wall.002-Mesh_0_indices",
      "componentType": 5123,
      "count": 1482,
      "min": [
        0
      ],
      "max": [
        1007
      ],
      "type": "SCALAR",
      "bufferView": 3,
      "byteOffset": 8184
    },
    {
      "name": "wall.003-Mesh_0_positions",
      "componentType": 5126,
      "count": 1008,
      "min": [
        -4,
        0,
        -2.5
      ],
      "max": [
        0,
        4,
        -1.5
      ],
      "type": "VEC3",
      "bufferView": 0,
      "byteOffset": 42816
    },
    {
      "name": "wall.003-Mesh_0_normals",
      "componentType": 5126,
      "count": 1008,
      "min": [
        -1,
        -0.8767811059951782,
        -1
      ],
      "max": [
        1,
        1,
        1
      ],
      "type": "VEC3",
      "bufferView": 1,
      "byteOffset": 42816
    },
    {
      "name": "wall.003-Mesh_0_texcoords",
      "componentType": 5126,
      "count": 1008,
      "min": [
        0.05514499917626381,
        0.006211999803781509
      ],
      "max": [
        0.2152940034866333,
        0.21358899772167206
      ],
      "type": "VEC2",
      "bufferView": 2,
      "byteOffset": 28544
    },
    {
      "name": "wall.003-Mesh_0_indices",
      "componentType": 5123,
      "count": 1482,
      "min": [
        0
      ],
      "max": [
        1007
      ],
      "type": "SCALAR",
      "bufferView": 3,
      "byteOffset": 11148
    },
    {
      "name": "pillar-Mesh_0_positions",
      "componentType": 5126,
      "count": 241,
      "min": [
        -4.750011920928955,
        0,
        -2.75
      ],
      "max": [
        -3.250011920928955,
        4,
        -1.25
      ],
      "type": "VEC3",
      "bufferView": 0,
      "byteOffset": 54912
    },
    {
      "name": "pillar-Mesh_0_normals",
      "componentType": 5126,
      "count": 241,
      "min": [
        -1,
        -0.6196086406707764,
        -1
      ],
      "max": [
        1,
        1,
        1
      ],
      "type": "VEC3",
      "bufferView": 1,
      "byteOffset": 54912
    },
    {
      "name": "pillar-Mesh_0_texcoords",
      "componentType": 5126,
      "count": 241,
      "min": [
        0.01739400066435337,
        0.006211999803781509
      ],
      "max": [
        0.20640400052070618,
        0.20386800169944763
      ],
      "type": "VEC2",
      "bufferView": 2,
      "byteOffset": 36608
    },
    {
      "name": "pillar-Mesh_0_indices",
      "componentType": 5123,
      "count": 408,
      "min": [
        0
      ],
      "max": [
        240
      ],
      "type": "SCALAR",
      "bufferView": 3,
      "byteOffset": 14112
    },
    {
      "name": "pillar.001-Mesh_0_positions",
      "componentType": 5126,
      "count": 241,
      "min": [
        -4.750011920928955,
        0,
        1.25
      ],
      "max": [
        -3.250011920928955,
        4,
        2.75
      ],
      "type": "VEC3",
      "bufferView": 0,
      "byteOffset": 57804
    },
    {
      "name": "pillar.001-Mesh_0_normals",
      "componentType": 5126,
      "count": 241,
      "min": [
        -1,
        -0.6196086406707764,
        -1
      ],
      "max": [
        1,
        1,
        1
      ],
      "type": "VEC3",
      "bufferView": 1,
      "byteOffset": 57804
    },
    {
      "name": "pillar.001-Mesh_0_texcoords",
      "componentType": 5126,
      "count": 241,
      "min": [
        0.01739400066435337,
        0.006211999803781509
      ],
      "max": [
        0.20640400052070618,
        0.20386800169944763
      ],
      "type": "VEC2",
      "bufferView": 2,
      "byteOffset": 38536
    },
    {
      "name": "pillar.001-Mesh_0_indices",
      "componentType": 5123,
      "count": 408,
      "min": [
        0
      ],
      "max": [
        240
      ],
      "type": "SCALAR",
      "bufferView": 3,
      "byteOffset": 14928
    },
    {
      "name": "pillar.002-Mesh_0_positions",
      "componentType": 5126,
      "count": 241,
      "min": [
        3.249988079071045,
        0,
        -2.75
      ],
      "max": [
        4.749988079071045,
        4,
        -1.25
      ],
      "type": "VEC3",
      "bufferView": 0,
      "byteOffset": 60696
    },
    {
      "name": "pillar.002-Mesh_0_normals",
      "componentType": 5126,
      "count": 241,
      "min": [
        -1,
        -0.6196086406707764,
        -1
      ],
      "max": [
        1,
        1,
        1
      ],
      "type": "VEC3",
      "bufferView": 1,
      "byteOffset": 60696
    },
    {
      "name": "pillar.002-Mesh_0_texcoords",
      "componentType": 5126,
      "count": 241,
      "min": [
        0.01739400066435337,
        0.006211999803781509
      ],
      "max": [
        0.20640400052070618,
        0.20386800169944763
      ],
      "type": "VEC2",
      "bufferView": 2,
      "byteOffset": 40464
    },
    {
      "name": "pillar.002-Mesh_0_indices",
      "componentType": 5123,
      "count": 408,
      "min": [
        0
      ],
      "max": [
        240
      ],
      "type": "SCALAR",
      "bufferView": 3,
      "byteOffset": 15744
    },
    {
      "name": "pillar.003-Mesh_0_positions",
      "componentType": 5126,
      "count": 241,
      "min": [
        3.249988079071045,
        0,
        1.25
      ],
      "max": [
        4.749988079071045,
        4,
        2.75
      ],
      "type": "VEC3",
      "bufferView": 0,
      "byteOffset": 63588
    },
    {
      "name": "pillar.003-Mesh_0_normals",
      "componentType": 5126,
      "count": 241,
      "min": [
        -1,
        -0.6196086406707764,
        -1
      ],
      "max": [
        1,
        1,
        1
      ],
      "type": "VEC3",
      "bufferView": 1,
      "byteOffset": 63588
    },
    {
      "name": "pillar.003-Mesh_0_texcoords",
      "componentType": 5126,
      "count": 241,
      "min": [
        0.01739400066435337,
        0.006211999803781509
      ],
      "max": [
        0.20640400052070618,
        0.20386800169944763
      ],
      "type": "VEC2",
      "bufferView": 2,
      "byteOffset": 42392
    },
    {
      "name": "pillar.003-Mesh_0_indices",
      "componentType": 5123,
      "count": 408,
      "min": [
        0
      ],
      "max": [
        240
      ],
      "type": "SCALAR",
      "bufferView": 3,
      "byteOffset": 16560
    }
  ],
  "asset": {
    "generator": "obj2gltf",
    "version": "2.0"
  },
  "buffers": [
    {
      "name": "01",
      "byteLength": 211704,
      "uri": "data:application/octet-stream;base64,"
    }
  ],
  "bufferViews": [
    {
      "name": "bufferView_0",
      "buffer": 0,
      "byteLength": 66480,
      "byteOffset": 0,
      "byteStride": 12,
      "target": 34962
    },
    {
      "name": "bufferView_1",
      "buffer": 0,
      "byteLength": 66480,
      "byteOffset": 66480,
      "byteStride": 12,
      "target": 34962
    },
    {
      "name": "bufferView_2",
      "buffer": 0,
      "byteLength": 44320,
      "byteOffset": 132960,
      "byteStride": 8,
      "target": 34962
    },
    {
      "name": "bufferView_3",
      "buffer": 0,
      "byteLength": 17376,
      "byteOffset": 177280,
      "target": 34963
    },
    {
      "buffer": 0,
      "byteOffset": 194656,
      "byteLength": 17047
    }
  ],
  "images": [
    {
      "name": "dungeon_texture",
      "mimeType": "image/png",
      "bufferView": 4
    }
  ],
  "materials": [
    {
      "name": "texture",
      "pbrMetallicRoughness": {
        "baseColorTexture": {
          "index": 0
        },
        "baseColorFactor": [
          1,
          1,
          1,
          1
        ],
        "metallicFactor": 0,
        "roughnessFactor": 0.6975
      },
      "emissiveFactor": [
        0,
        0,
        0
      ],
      "alphaMode": "OPAQUE",
      "doubleSided": false
    },
    {
      "name": "texture.001",
      "pbrMetallicRoughness": {
        "baseColorTexture": {
          "index": 0
        },
        "baseColorFactor": [
          1,
          1,
          1,
          1
        ],
        "metallicFactor": 0,
        "roughnessFactor": 0.6975
      },
      "emissiveFactor": [
        0,
        0,
        0
      ],
      "alphaMode": "OPAQUE",
      "doubleSided": false
    },
    {
      "name": "texture.002",
      "pbrMetallicRoughness": {
        "baseColorTexture": {
          "index": 0
        },
        "baseColorFactor": [
          1,
          1,
          1,
          1
        ],
        "metallicFactor": 0,
        "roughnessFactor": 0.6975
      },
      "emissiveFactor": [
        0,
        0,
        0
      ],
      "alphaMode": "OPAQUE",
      "doubleSided": false
    }
  ],
  "meshes": [
    {
      "name": "floor_tile_large-Mesh",
      "primitives": [
        {
          "attributes": {
            "POSITION": 0,
            "NORMAL": 1,
            "TEXCOORD_0": 2
          },
          "indices": 3,
          "material": 0,
          "mode": 4
        }
      ]
    },
    {
      "name": "floor_tile_large.001-Mesh",
      "primitives": [
        {
          "attributes": {
            "POSITION": 4,
            "NORMAL": 5,
            "TEXCOORD_0": 6
          },
          "indices": 7,
          "material": 0,
          "mode": 4
        }
      ]
    },
    {
      "name": "wall-Mesh",
      "primitives": [
        {
          "attributes": {
            "POSITION": 8,
            "NORMAL": 9,
            "TEXCOORD_0": 10
          },
          "indices": 11,
          "material": 1,
          "mode": 4
        }
      ]
    },
    {
      "name": "wall.001-Mesh",
      "primitives": [
        {
          "attributes": {
            "POSITION": 12,
            "NORMAL": 13,
            "TEXCOORD_0": 14
          },
          "indices": 15,
          "material": 1,
          "mode": 4
        }
      ]
    },
    {
      "name": "wall.002-Mesh",
      "primitives": [
        {
          "attributes": {
            "POSITION": 16,
            "NORMAL": 17,
            "TEXCOORD_0": 18
          },
          "indices": 19,
          "material": 1,
          "mode": 4
        }
      ]
    },
    {
      "name": "wall.003-Mesh",
      "primitives": [
        {
          "attributes": {
            "POSITION": 20,
            "NORMAL": 21,
            "TEXCOORD_0": 22
          },
          "indices": 23,
          "material": 1,
          "mode": 4
        }
      ]
    },
    {
      "name": "pillar-Mesh",
      "primitives": [
        {
          "attributes": {
            "POSITION": 24,
            "NORMAL": 25,
            "TEXCOORD_0": 26
          },
          "indices": 27,
          "material": 2,
          "mode": 4
        }
      ]
    },
    {
      "name": "pillar.001-Mesh",
      "primitives": [
        {
          "attributes": {
            "POSITION": 28,
            "NORMAL": 29,
            "TEXCOORD_0": 30
          },
          "indices": 31,
          "material": 2,
          "mode": 4
        }
      ]
    },
    {
      "name": "pillar.002-Mesh",
      "primitives": [
        {
          "attributes": {
            "POSITION": 32,
            "NORMAL": 33,
            "TEXCOORD_0": 34
          },
          "indices": 35,
          "material": 2,
          "mode": 4
        }
      ]
    },
    {
      "name": "pillar.003-Mesh",
      "primitives": [
        {
          "attributes": {
            "POSITION": 36,
            "NORMAL": 37,
            "TEXCOORD_0": 38
          },
          "indices": 39,
          "material": 2,
          "mode": 4
        }
      ]
    }
  ],
  "nodes": [
    {
      "name": "floor_tile_large",
      "mesh": 0
    },
    {
      "name": "floor_tile_large.001",
      "mesh": 1
    },
    {
      "name": "wall",
      "mesh": 2
    },
    {
      "name": "wall.001",
      "mesh": 3
    },
    {
      "name": "wall.002",
      "mesh": 4
    },
    {
      "name": "wall.003",
      "mesh": 5
    },
    {
      "name": "pillar",
      "mesh": 6
    },
    {
      "name": "pillar.001",
      "mesh": 7
    },
    {
      "name": "pillar.002",
      "mesh": 8
    },
    {
      "name": "pillar.003",
      "mesh": 9
    }
  ],
  "samplers": [
    {
      "wrapS": 10497,
      "wrapT": 10497
    }
  ],
  "scene": 0,
  "scenes": [
    {
      "nodes": [
        0,
        1,
        2,
        3,
        4,
        5,
        6,
        7,
        8,
        9
      ]
    }
  ],
  "textures": [
    {
      "name": "dungeon_texture",
      "sampler": 0,
      "source": 0
    }
  ]
}
